<svg width="120" height="120" viewBox="0 0 120 120" fill="none" xmlns="http://www.w3.org/2000/svg">
<g clip-path="url(#clip0_563_279)">
<path d="M59.9144 14.8489C55.7399 23.5774 51.7365 31.9929 47.6646 40.4085C47.1856 41.417 47.5962 41.7995 48.2805 42.3907C55.4662 48.7892 57.964 56.9613 57.2112 66.4201C57.2112 66.5245 57.1086 66.6288 57.0059 66.8374C56.6295 66.8722 56.1847 66.907 55.7741 66.907C49.3755 66.907 43.0111 66.9418 36.6124 66.8722C35.449 66.8722 34.9016 67.2547 34.4225 68.2632C30.4191 76.7483 26.3473 85.1986 22.3438 93.7185C21.8306 94.8313 21.2147 95.2486 20.0171 95.179C17.9298 95.0747 15.8083 95.1442 13.3789 95.1442C14.6107 92.6057 15.7399 90.241 16.9033 87.8763C20.9409 79.6346 24.9786 71.4277 28.982 63.1861C29.4952 62.108 30.0769 61.6907 31.3088 61.6907C39.0761 61.7603 46.8092 61.7255 54.5765 61.7255C55.1924 61.7255 55.8083 61.7255 56.6295 61.7255C55.8425 50.841 50.71 43.26 41.0607 38.635C47.3224 25.8726 53.55 13.1797 59.9828 0C75.6201 31.8886 91.0521 63.4295 106.655 95.179C103.952 95.179 101.591 95.2486 99.1958 95.1442C98.7168 95.1095 98.0667 94.6226 97.8614 94.1358C90.1283 77.9654 82.3951 61.7951 74.6963 45.6247C70.0427 35.853 65.3549 26.0812 60.7014 16.2747C60.4961 15.8921 60.2566 15.5096 59.9144 14.8489Z" fill="white"/>
<path d="M7.73422 105.084H9.98079L13.8483 115.25H11.4595L10.7344 113.003H6.96641L6.24126 115.25H3.89516L7.73422 105.084ZM10.2083 111.297L8.87172 107.103H8.84329L7.50672 111.297H10.2083ZM14.7201 105.084H19.398C20.4502 105.084 21.2797 105.349 21.8863 105.88C22.493 106.411 22.7963 107.197 22.7963 108.24C22.7963 109.283 22.493 110.074 21.8863 110.615C21.2797 111.146 20.4502 111.411 19.398 111.411H16.9098V115.25H14.7201V105.084ZM18.9999 109.591C19.5118 109.591 19.8957 109.487 20.1516 109.278C20.4171 109.06 20.5498 108.714 20.5498 108.24C20.5498 107.349 20.0331 106.904 18.9999 106.904H16.9098V109.591H18.9999ZM26.1622 106.904H23.0767V105.084H31.4231V106.904H28.3519V115.25H26.1622V106.904ZM32.5491 105.084H40.0708V106.904H34.7387V109.107H39.3598V110.927H34.7387V113.43H40.1703V115.25H32.5491V105.084ZM42.0161 115.463C41.7601 115.463 41.5042 115.449 41.2483 115.421C40.9923 115.392 40.8122 115.35 40.7079 115.293V113.416C40.9734 113.511 41.2577 113.558 41.5611 113.558C41.8644 113.558 42.0919 113.463 42.2436 113.274C42.3952 113.075 42.4806 112.743 42.4995 112.278L42.8976 105.084H49.6373V115.25H47.4476V106.904H44.8456L44.5328 112.463C44.4759 113.553 44.2247 114.326 43.7792 114.781C43.3432 115.236 42.7554 115.463 42.0161 115.463ZM51.4611 105.084H53.6508V108.425H55.7267C56.8263 108.425 57.6984 108.728 58.343 109.335C58.997 109.942 59.3241 110.762 59.3241 111.795C59.3241 112.866 58.9876 113.71 58.3145 114.326C57.6415 114.942 56.7315 115.25 55.5845 115.25H51.4611V105.084ZM55.5561 113.43C56.0301 113.43 56.3997 113.288 56.6652 113.003C56.9401 112.71 57.0775 112.307 57.0775 111.795C57.0775 111.33 56.9495 110.956 56.6936 110.672C56.4471 110.387 56.1106 110.245 55.6841 110.245H53.6508V113.43H55.5561ZM63.0588 105.084H70.7654V115.25H69.4857V106.221H64.3385V115.25H63.0588V105.084ZM72.8759 105.084H76.914C77.9093 105.084 78.7056 105.325 79.3027 105.809C79.9094 106.283 80.2127 107.027 80.2127 108.041C80.2127 109.055 79.9094 109.804 79.3027 110.288C78.7056 110.762 77.9093 110.999 76.914 110.999H74.1556V115.25H72.8759V105.084ZM76.9993 109.861C77.6344 109.861 78.1036 109.714 78.407 109.42C78.7198 109.117 78.8762 108.657 78.8762 108.041C78.8762 107.425 78.7198 106.97 78.407 106.676C78.1036 106.373 77.6344 106.221 76.9993 106.221H74.1556V109.861H76.9993ZM85.9773 115.449C85.001 115.449 84.1336 115.222 83.3753 114.767C82.6265 114.312 82.0435 113.686 81.6264 112.89C81.2093 112.084 81.0008 111.174 81.0008 110.16C81.0008 109.145 81.2093 108.24 81.6264 107.444C82.0435 106.638 82.6265 106.013 83.3753 105.567C84.1336 105.112 85.001 104.885 85.9773 104.885C86.9537 104.885 87.8163 105.112 88.5652 105.567C89.3235 106.013 89.9112 106.638 90.3283 107.444C90.7454 108.24 90.9539 109.145 90.9539 110.16C90.9539 111.174 90.7454 112.084 90.3283 112.89C89.9112 113.686 89.3235 114.312 88.5652 114.767C87.8163 115.222 86.9537 115.449 85.9773 115.449ZM82.3373 110.16C82.3373 110.927 82.4653 111.624 82.7212 112.25C82.9867 112.875 83.3895 113.378 83.9298 113.757C84.4796 114.127 85.1621 114.312 85.9773 114.312C86.7925 114.312 87.4703 114.127 88.0106 113.757C88.5604 113.378 88.9633 112.875 89.2192 112.25C89.4846 111.624 89.6173 110.927 89.6173 110.16C89.6173 109.401 89.4846 108.709 89.2192 108.084C88.9633 107.458 88.5604 106.96 88.0106 106.591C87.4703 106.212 86.7925 106.022 85.9773 106.022C85.1621 106.022 84.4796 106.212 83.9298 106.591C83.3895 106.96 82.9867 107.458 82.7212 108.084C82.4653 108.709 82.3373 109.401 82.3373 110.16ZM92.5516 105.084H99.5899V106.221H93.8313V109.42H98.9074V110.558H93.8313V114.112H99.7605V115.25H92.5516V105.084ZM103.831 110.856H102.538V115.25H101.258V105.084H102.538V109.719H103.86L107.614 105.084H109.007L104.855 110.217L109.306 115.25H107.699L103.831 110.856ZM112.704 106.221H109.32V105.084H117.367V106.221H113.983V115.25H112.704V106.221Z" fill="white"/>
<path d="M37.3773 103.685H35.7422L37.3773 101.315H39.2969L37.3773 103.685Z" fill="white"/>
</g>
<defs>
<clipPath id="clip0_563_279">
<rect width="120" height="120" fill="white"/>
</clipPath>
</defs>
</svg>
