<svg width="233" height="65" viewBox="0 0 233 65" fill="none" xmlns="http://www.w3.org/2000/svg">
<mask id="mask0_877_47" style="mask-type:luminance" maskUnits="userSpaceOnUse" x="0" y="2" width="64" height="63">
<path d="M63.464 2.04053H0.697266V64.2657H63.464V2.04053Z" fill="white"/>
</mask>
<g mask="url(#mask0_877_47)">
<path d="M56.4502 54.2458H39.4875V50.1454H56.4502C57.2505 50.1454 58.0194 49.8263 58.5843 49.2359C59.1492 48.6615 59.463 47.8797 59.463 47.0501V9.23631C59.463 8.4226 59.1492 7.64079 58.5843 7.05045C58.0194 6.47606 57.2505 6.14101 56.4502 6.14101H20.9556C20.1554 6.14101 19.3865 6.46011 18.8216 7.05045C18.2567 7.62484 17.9428 8.40664 17.9428 9.23631V15.2674H13.9258V9.23631C13.9258 7.32169 14.6633 5.5028 15.9814 4.14661C17.2995 2.79042 19.0883 2.04053 20.9556 2.04053H56.4502C58.3175 2.04053 60.1064 2.79042 61.4245 4.14661C62.7426 5.5028 63.4801 7.32169 63.4801 9.23631V47.066C63.4801 48.9806 62.7426 50.7995 61.4245 52.1557C60.1064 53.5119 58.3175 54.2618 56.4502 54.2618V54.2458Z" fill="black"/>
<path d="M5.95321 64.2657C5.62368 64.2657 5.29416 64.1859 4.99601 64.0264C4.69787 63.8668 4.44681 63.6275 4.2742 63.3403C4.0859 63.0531 3.97606 62.718 3.96036 62.383C3.94467 62.0479 3.99175 61.6969 4.13297 61.3778C4.13297 61.3459 5.45107 58.3463 6.32981 55.6499C6.42396 55.3787 6.50241 55.1234 6.59656 54.8521C7.19285 53.0971 7.61652 51.8207 7.49099 49.8263C7.34976 47.4011 5.90613 43.9388 4.61941 41.9125L4.18005 41.2105C2.7678 38.9927 1.74784 37.3653 1.35555 35.8495C-0.229312 29.7866 1.43401 25.2074 3.09732 22.4312C6.37688 16.9586 12.1828 13.1453 17.8946 12.7305C23.2454 12.3316 31.2953 14.342 35.0926 17.0224C37.6975 18.8573 39.6275 21.8728 40.4749 23.8832C41.4007 26.0531 42.1539 30.0738 42.1539 31.5416C42.1539 32.2596 42.0597 32.9616 41.9342 33.6637C41.7616 34.7008 41.7145 35.1315 41.9342 35.5464C42.2323 36.1208 42.8914 37.11 43.472 38.0035C44.2252 39.1363 44.8685 40.1096 45.1667 40.7797C46.3593 43.4282 44.1624 45.1354 43.2052 45.8534C42.9855 46.0289 42.7972 46.1566 42.6403 46.2842L42.3579 46.4916C42.3579 46.4916 42.3265 46.6352 42.3108 46.715C41.6831 50.0656 40.8044 53.7672 39.2195 55.8414C37.5405 58.0113 35.1711 58.825 31.7032 58.4101C27.6548 57.9155 24.8931 56.2243 24.7832 56.1605C24.3438 55.8733 24.03 55.4106 23.9045 54.9C23.7789 54.3735 23.8731 53.831 24.1399 53.3683C24.4066 52.9056 24.846 52.5706 25.3638 52.4429C25.8659 52.3153 26.4151 52.395 26.8702 52.6503C28.5178 53.5438 30.3224 54.1182 32.174 54.3256C34.9985 54.6607 35.6889 53.7831 36.0498 53.3045C37.2581 51.7409 38.0741 47.3692 38.3565 45.9492C38.4036 45.5662 38.4977 45.1993 38.6233 44.8323C38.9685 43.9388 39.5334 43.524 40.2552 42.9815C40.4121 42.8698 40.5847 42.7422 40.7887 42.5826C40.9142 42.4869 41.1339 42.3114 41.3222 42.1678C41.0398 41.6732 40.5376 40.9073 40.1454 40.317C39.4706 39.2959 38.7802 38.2588 38.3879 37.477C37.5248 35.7857 37.7759 34.2381 37.9956 32.9776C38.0897 32.4989 38.1525 32.0362 38.1682 31.5416C38.1682 30.7598 37.5562 27.2337 36.8344 25.5106C36.348 24.3778 34.8886 21.8409 32.8487 20.389C29.8359 18.2669 22.6021 16.4959 18.2241 16.815C13.7677 17.1341 9.20138 20.1816 6.56518 24.5692C5.30985 26.6594 4.07021 30.1216 5.29416 34.7805C5.52953 35.6581 6.48672 37.1898 7.61652 38.9608L8.05589 39.6628C9.59367 42.1199 11.3511 46.2523 11.5551 49.5391C11.7277 52.3472 11.0844 54.2778 10.4567 56.1445C10.3783 56.3838 10.2841 56.6391 10.2056 56.8944C9.26415 59.7823 7.93036 62.8616 7.88328 62.9893C7.72636 63.3562 7.4753 63.6594 7.14577 63.8828C6.81625 64.1061 6.43965 64.2178 6.04736 64.2178L5.95321 64.2657Z" fill="black"/>
</g>
<path d="M82.9758 44.8176C82.9758 45.5856 83.1144 46.2363 83.3918 46.7696C83.6691 47.3029 84.0318 47.7403 84.4798 48.0816C84.9491 48.4016 85.4931 48.6469 86.1118 48.8176C86.7304 48.9669 87.3704 49.0416 88.0318 49.0416C88.4798 49.0416 88.9598 49.0096 89.4718 48.9456C89.9838 48.8603 90.4638 48.7109 90.9118 48.4976C91.3598 48.2843 91.7331 47.9963 92.0318 47.6336C92.3304 47.2496 92.4798 46.7696 92.4798 46.1936C92.4798 45.5749 92.2771 45.0736 91.8718 44.6896C91.4878 44.3056 90.9758 43.9856 90.3358 43.7296C89.6958 43.4736 88.9704 43.2496 88.1598 43.0576C87.3491 42.8656 86.5278 42.6523 85.6958 42.4176C84.8424 42.2043 84.0104 41.9483 83.1998 41.6496C82.3891 41.3296 81.6638 40.9243 81.0238 40.4336C80.3838 39.9429 79.8611 39.3349 79.4557 38.6096C79.0718 37.8629 78.8798 36.9669 78.8798 35.9216C78.8798 34.7483 79.1251 33.7349 79.6158 32.8816C80.1278 32.0069 80.7891 31.2816 81.5998 30.7056C82.4104 30.1296 83.3278 29.7029 84.3518 29.4256C85.3758 29.1483 86.3998 29.0096 87.4238 29.0096C88.6184 29.0096 89.7598 29.1483 90.8478 29.4256C91.9571 29.6816 92.9384 30.1083 93.7917 30.7056C94.6451 31.3029 95.3171 32.0709 95.8078 33.0096C96.3198 33.9269 96.5758 35.0469 96.5758 36.3696H91.7118C91.6691 35.6869 91.5198 35.1216 91.2638 34.6736C91.0291 34.2256 90.7091 33.8736 90.3038 33.6176C89.8984 33.3616 89.4291 33.1803 88.8958 33.0736C88.3838 32.9669 87.8184 32.9136 87.1998 32.9136C86.7944 32.9136 86.3891 32.9563 85.9838 33.0416C85.5784 33.1269 85.2051 33.2763 84.8638 33.4896C84.5438 33.7029 84.2771 33.9696 84.0638 34.2896C83.8504 34.6096 83.7438 35.0149 83.7438 35.5056C83.7438 35.9536 83.8291 36.3163 83.9998 36.5936C84.1704 36.8709 84.5011 37.1269 84.9918 37.3616C85.5038 37.5963 86.1971 37.8309 87.0718 38.0656C87.9678 38.3003 89.1304 38.5989 90.5598 38.9616C90.9864 39.0469 91.5731 39.2069 92.3198 39.4416C93.0878 39.6549 93.8451 40.0069 94.5918 40.4976C95.3384 40.9883 95.9784 41.6496 96.5118 42.4816C97.0664 43.2923 97.3438 44.3376 97.3438 45.6176C97.3438 46.6629 97.1411 47.6336 96.7358 48.5296C96.3304 49.4256 95.7224 50.2043 94.9118 50.8656C94.1224 51.5056 93.1304 52.0069 91.9358 52.3696C90.7624 52.7323 89.3971 52.9136 87.8398 52.9136C86.5811 52.9136 85.3544 52.7536 84.1598 52.4336C82.9864 52.1349 81.9411 51.6549 81.0238 50.9936C80.1278 50.3323 79.4131 49.4896 78.8798 48.4656C78.3464 47.4416 78.0904 46.2256 78.1118 44.8176H82.9758ZM106.253 43.5056L97.869 29.5536H103.501L108.845 38.5776L114.157 29.5536H119.757L111.277 43.6336V52.4016H106.253V43.5056ZM121.677 29.5536H126.669L136.205 44.8816H136.269V29.5536H140.973V52.4016H135.949L126.445 37.1056H126.381V52.4016H121.677V29.5536ZM145.396 29.5536H162.484V33.7776H150.42V38.6736H161.492V42.5776H150.42V48.1776H162.74V52.4016H145.396V29.5536ZM171.17 39.8896H176.674C177.826 39.8896 178.69 39.6336 179.266 39.1216C179.842 38.6096 180.13 37.7776 180.13 36.6256C180.13 35.5163 179.842 34.7163 179.266 34.2256C178.69 33.7136 177.826 33.4576 176.674 33.4576H171.17V39.8896ZM166.146 29.5536H178.466C179.49 29.5536 180.407 29.7243 181.218 30.0656C182.05 30.3856 182.754 30.8336 183.33 31.4096C183.927 31.9856 184.375 32.6576 184.674 33.4256C184.994 34.1723 185.154 34.9829 185.154 35.8576C185.154 37.2016 184.866 38.3643 184.29 39.3456C183.735 40.3269 182.818 41.0736 181.538 41.5856V41.6496C182.156 41.8203 182.668 42.0869 183.074 42.4496C183.479 42.7909 183.81 43.2069 184.066 43.6976C184.322 44.1669 184.503 44.6896 184.61 45.2656C184.738 45.8416 184.823 46.4176 184.866 46.9936C184.887 47.3563 184.908 47.7829 184.93 48.2736C184.951 48.7643 184.983 49.2656 185.026 49.7776C185.09 50.2896 185.175 50.7803 185.282 51.2496C185.41 51.6976 185.591 52.0816 185.826 52.4016H180.802C180.524 51.6763 180.354 50.8123 180.29 49.8096C180.226 48.8069 180.13 47.8469 180.002 46.9296C179.831 45.7349 179.468 44.8603 178.914 44.3056C178.359 43.7509 177.452 43.4736 176.194 43.4736H171.17V52.4016H166.146V29.5536ZM205.751 49.8096C204.855 50.9616 203.863 51.7723 202.775 52.2416C201.687 52.6896 200.589 52.9136 199.479 52.9136C197.73 52.9136 196.151 52.6149 194.743 52.0176C193.357 51.3989 192.183 50.5563 191.223 49.4896C190.263 48.4229 189.527 47.1749 189.015 45.7456C188.503 44.2949 188.247 42.7376 188.247 41.0736C188.247 39.3669 188.503 37.7883 189.015 36.3376C189.527 34.8656 190.263 33.5856 191.223 32.4976C192.183 31.4096 193.357 30.5563 194.743 29.9376C196.151 29.3189 197.73 29.0096 199.479 29.0096C200.653 29.0096 201.783 29.1909 202.871 29.5536C203.981 29.8949 204.973 30.4069 205.847 31.0896C206.743 31.7723 207.479 32.6149 208.055 33.6176C208.631 34.6203 208.983 35.7723 209.111 37.0736H204.311C204.013 35.7936 203.437 34.8336 202.583 34.1936C201.73 33.5536 200.695 33.2336 199.479 33.2336C198.349 33.2336 197.389 33.4576 196.599 33.9056C195.81 34.3323 195.17 34.9189 194.679 35.6656C194.189 36.3909 193.826 37.2229 193.591 38.1616C193.378 39.1003 193.271 40.0709 193.271 41.0736C193.271 42.0336 193.378 42.9723 193.591 43.8896C193.826 44.7856 194.189 45.5963 194.679 46.3216C195.17 47.0469 195.81 47.6336 196.599 48.0816C197.389 48.5083 198.349 48.7216 199.479 48.7216C201.143 48.7216 202.423 48.3056 203.319 47.4736C204.237 46.6203 204.77 45.3936 204.919 43.7936H199.863V40.0496H209.463V52.4016H206.263L205.751 49.8096ZM219.441 43.5056L211.056 29.5536H216.689L222.033 38.5776L227.345 29.5536H232.945L224.465 43.6336V52.4016H219.441V43.5056Z" fill="black"/>
<path d="M82.9554 5.148H85.3494L90.2994 18H87.8874L86.6814 14.598H81.5514L80.3454 18H78.0234L82.9554 5.148ZM82.1634 12.888H86.0874L84.1614 7.362H84.1074L82.1634 12.888ZM91.5233 5.148H97.6613C99.0773 5.148 100.139 5.454 100.847 6.066C101.555 6.678 101.909 7.53 101.909 8.622C101.909 9.234 101.819 9.744 101.639 10.152C101.459 10.548 101.249 10.872 101.009 11.124C100.769 11.364 100.529 11.538 100.289 11.646C100.061 11.754 99.8933 11.826 99.7853 11.862V11.898C99.9773 11.922 100.181 11.982 100.397 12.078C100.625 12.174 100.835 12.33 101.027 12.546C101.219 12.75 101.375 13.02 101.495 13.356C101.627 13.692 101.693 14.112 101.693 14.616C101.693 15.372 101.747 16.062 101.855 16.686C101.975 17.298 102.155 17.736 102.395 18H99.9833C99.8153 17.724 99.7133 17.418 99.6773 17.082C99.6533 16.746 99.6413 16.422 99.6413 16.11C99.6413 15.522 99.6053 15.018 99.5333 14.598C99.4613 14.166 99.3293 13.812 99.1373 13.536C98.9453 13.248 98.6813 13.038 98.3453 12.906C98.0213 12.774 97.6013 12.708 97.0853 12.708H93.7733V18H91.5233V5.148ZM93.7733 10.998H97.4633C98.1833 10.998 98.7293 10.83 99.1013 10.494C99.4733 10.146 99.6593 9.63 99.6593 8.946C99.6593 8.538 99.5993 8.208 99.4793 7.956C99.3593 7.692 99.1913 7.488 98.9753 7.344C98.7713 7.2 98.5313 7.104 98.2553 7.056C97.9913 7.008 97.7153 6.984 97.4273 6.984H93.7733V10.998ZM102.657 5.148H113.061V7.092H108.975V18H106.725V7.092H102.657V5.148ZM114.497 5.148H116.747V10.26H122.597V5.148H124.847V18H122.597V12.204H116.747V18H114.497V5.148ZM130.979 5.148H133.373L138.323 18H135.911L134.705 14.598H129.575L128.369 18H126.047L130.979 5.148ZM130.187 12.888H134.111L132.185 7.362H132.131L130.187 12.888ZM139.547 5.148H141.797V16.056H148.331V18H139.547V5.148ZM149.883 5.148H152.133V16.056H158.667V18H149.883V5.148Z" fill="black"/>
</svg>
