<svg width="262" height="31" viewBox="0 0 262 31" fill="none" xmlns="http://www.w3.org/2000/svg">
<path d="M19.2544 22.32L19.9744 21.8C20.881 21.2667 21.521 21 21.8944 21C22.721 21 23.6144 21.7467 24.5744 23.24C25.161 24.1733 25.4544 24.92 25.4544 25.48C25.4544 26.04 25.2677 26.5067 24.8944 26.88C24.5477 27.2533 24.1344 27.5867 23.6544 27.88C23.1744 28.1733 22.7077 28.4533 22.2544 28.72C21.8277 28.9867 20.9344 29.3333 19.5744 29.76C18.2144 30.1867 16.8944 30.4 15.6144 30.4C14.361 30.4 13.081 30.24 11.7744 29.92C10.4944 29.5733 9.16105 29.0133 7.77438 28.24C6.41438 27.44 5.18771 26.48 4.09438 25.36C3.00105 24.2133 2.09438 22.76 1.37438 21C0.681048 19.2133 0.334381 17.28 0.334381 15.2C0.334381 13.12 0.681048 11.24 1.37438 9.56C2.06771 7.85333 2.94771 6.45333 4.01438 5.36C5.10771 4.24 6.34771 3.30666 7.73438 2.56C10.3477 1.12 12.9744 0.4 15.6144 0.4C16.8677 0.4 18.1344 0.599999 19.4144 0.999999C20.721 1.37333 21.7077 1.76 22.3744 2.16L23.3344 2.72C23.8144 3.01333 24.1877 3.25333 24.4544 3.44C25.1477 4 25.4944 4.64 25.4944 5.36C25.4944 6.05333 25.2144 6.78667 24.6544 7.56C23.6144 9 22.681 9.72 21.8544 9.72C21.3744 9.72 20.6944 9.42667 19.8144 8.84C18.6944 7.93333 17.201 7.48 15.3344 7.48C13.601 7.48 11.8944 8.08 10.2144 9.28C9.41438 9.86667 8.74772 10.6933 8.21438 11.76C7.68105 12.8267 7.41438 14.04 7.41438 15.4C7.41438 16.7333 7.68105 17.9333 8.21438 19C8.74772 20.0667 9.42771 20.9067 10.2544 21.52C11.881 22.6933 13.5744 23.28 15.3344 23.28C16.161 23.28 16.9344 23.1733 17.6544 22.96C18.401 22.7467 18.9344 22.5333 19.2544 22.32ZM43.4428 0.319998C47.3895 0.319998 50.8162 1.74666 53.7228 4.6C56.6295 7.45333 58.0828 11 58.0828 15.24C58.0828 19.4533 56.6962 23.0533 53.9228 26.04C51.1495 29 47.7362 30.48 43.6828 30.48C39.6295 30.48 36.1762 29.0133 33.3228 26.08C30.4962 23.1467 29.0828 19.6533 29.0828 15.6C29.0828 13.3867 29.4828 11.32 30.2828 9.4C31.0828 7.45333 32.1495 5.82667 33.4828 4.52C34.8162 3.21333 36.3495 2.18666 38.0828 1.44C39.8162 0.693332 41.6028 0.319998 43.4428 0.319998ZM36.1628 15.4C36.1628 17.7733 36.9228 19.7067 38.4428 21.2C39.9895 22.6667 41.7095 23.4 43.6028 23.4C45.4962 23.4 47.2028 22.68 48.7228 21.24C50.2428 19.8 51.0028 17.8667 51.0028 15.44C51.0028 13.0133 50.2295 11.0667 48.6828 9.6C47.1628 8.13333 45.4562 7.4 43.5628 7.4C41.6695 7.4 39.9628 8.14667 38.4428 9.64C36.9228 11.1067 36.1628 13.0267 36.1628 15.4ZM65.8584 0.639999L73.2584 0.679998C77.1251 0.679998 80.5251 2.08 83.4584 4.88C86.3918 7.65333 87.8584 11.08 87.8584 15.16C87.8584 19.2133 86.4184 22.6933 83.5384 25.6C80.6851 28.5067 77.2184 29.96 73.1384 29.96H65.8184C64.1918 29.96 63.1784 29.6267 62.7784 28.96C62.4584 28.4 62.2984 27.5467 62.2984 26.4V4.16C62.2984 3.52 62.3118 3.05333 62.3384 2.76C62.3918 2.46667 62.5251 2.12 62.7384 1.72C63.1118 0.999999 64.1518 0.639999 65.8584 0.639999ZM73.2584 22.88C75.1784 22.88 76.9118 22.1733 78.4584 20.76C80.0051 19.32 80.7784 17.52 80.7784 15.36C80.7784 13.2 80.0184 11.4 78.4984 9.96C77.0051 8.49333 75.2451 7.76 73.2184 7.76H69.3784V22.88H73.2584ZM99.1425 22.92H111.463C112.076 22.92 112.529 22.9467 112.823 23C113.143 23.0267 113.503 23.1467 113.903 23.36C114.623 23.7333 114.983 24.7733 114.983 26.48C114.983 28.3467 114.489 29.44 113.503 29.76C113.049 29.92 112.356 30 111.423 30H95.5825C93.7158 30 92.6225 29.4933 92.3025 28.48C92.1425 28.0533 92.0625 27.3733 92.0625 26.44V4.2C92.0625 2.84 92.3158 1.92 92.8225 1.44C93.3292 0.933332 94.2892 0.679998 95.7025 0.679998H111.463C112.076 0.679998 112.529 0.706666 112.823 0.76C113.143 0.786666 113.503 0.906665 113.903 1.12C114.623 1.49333 114.983 2.53333 114.983 4.24C114.983 6.10667 114.489 7.2 113.503 7.52C113.049 7.68 112.356 7.76 111.423 7.76H99.1425V11.8H107.063C107.676 11.8 108.129 11.8267 108.423 11.88C108.743 11.9067 109.103 12.0267 109.503 12.24C110.223 12.6133 110.583 13.6533 110.583 15.36C110.583 17.2267 110.076 18.32 109.063 18.64C108.609 18.8 107.916 18.88 106.983 18.88H99.1425V22.92ZM137.49 22.32L138.21 21.8C139.117 21.2667 139.757 21 140.13 21C140.957 21 141.85 21.7467 142.81 23.24C143.397 24.1733 143.69 24.92 143.69 25.48C143.69 26.04 143.504 26.5067 143.13 26.88C142.784 27.2533 142.37 27.5867 141.89 27.88C141.41 28.1733 140.944 28.4533 140.49 28.72C140.064 28.9867 139.17 29.3333 137.81 29.76C136.45 30.1867 135.13 30.4 133.85 30.4C132.597 30.4 131.317 30.24 130.01 29.92C128.73 29.5733 127.397 29.0133 126.01 28.24C124.65 27.44 123.424 26.48 122.33 25.36C121.237 24.2133 120.33 22.76 119.61 21C118.917 19.2133 118.57 17.28 118.57 15.2C118.57 13.12 118.917 11.24 119.61 9.56C120.304 7.85333 121.184 6.45333 122.25 5.36C123.344 4.24 124.584 3.30666 125.97 2.56C128.584 1.12 131.21 0.4 133.85 0.4C135.104 0.4 136.37 0.599999 137.65 0.999999C138.957 1.37333 139.944 1.76 140.61 2.16L141.57 2.72C142.05 3.01333 142.424 3.25333 142.69 3.44C143.384 4 143.73 4.64 143.73 5.36C143.73 6.05333 143.45 6.78667 142.89 7.56C141.85 9 140.917 9.72 140.09 9.72C139.61 9.72 138.93 9.42667 138.05 8.84C136.93 7.93333 135.437 7.48 133.57 7.48C131.837 7.48 130.13 8.08 128.45 9.28C127.65 9.86667 126.984 10.6933 126.45 11.76C125.917 12.8267 125.65 14.04 125.65 15.4C125.65 16.7333 125.917 17.9333 126.45 19C126.984 20.0667 127.664 20.9067 128.49 21.52C130.117 22.6933 131.81 23.28 133.57 23.28C134.397 23.28 135.17 23.1733 135.89 22.96C136.637 22.7467 137.17 22.5333 137.49 22.32ZM170.359 25.04C170.759 26 170.959 26.6933 170.959 27.12C170.959 28.1333 170.132 28.9867 168.479 29.68C167.625 30.0533 166.932 30.24 166.399 30.24C165.892 30.24 165.465 30.12 165.119 29.88C164.799 29.6133 164.559 29.3467 164.399 29.08C164.132 28.5733 163.092 26.16 161.279 21.84L160.039 21.92H154.999V26.44C154.999 27.0533 154.972 27.52 154.919 27.84C154.892 28.1333 154.772 28.48 154.559 28.88C154.185 29.6 153.145 29.96 151.439 29.96C149.572 29.96 148.479 29.4667 148.159 28.48C147.999 28.0267 147.919 27.3333 147.919 26.4V4.2C147.919 3.58666 147.932 3.13333 147.959 2.84C148.012 2.52 148.145 2.16 148.359 1.76C148.732 1.04 149.772 0.679998 151.479 0.679998H160.119C162.465 0.679998 164.745 1.53333 166.959 3.24C168.025 4.06667 168.905 5.18667 169.599 6.6C170.292 8.01333 170.639 9.58667 170.639 11.32C170.639 14.3333 169.639 16.8133 167.639 18.76C168.225 20.1733 169.132 22.2667 170.359 25.04ZM154.999 14.84H160.119C160.892 14.84 161.665 14.5467 162.439 13.96C163.212 13.3733 163.599 12.4933 163.599 11.32C163.599 10.1467 163.212 9.26666 162.439 8.68C161.665 8.06666 160.865 7.76 160.039 7.76H154.999V14.84ZM191.673 2.76L202.473 25.08C202.926 25.9867 203.153 26.6667 203.153 27.12C203.153 28.08 202.38 28.9467 200.833 29.72C199.926 30.1733 199.206 30.4 198.673 30.4C198.166 30.4 197.74 30.28 197.393 30.04C197.073 29.8 196.833 29.5467 196.673 29.28C196.54 29.0133 196.34 28.6133 196.073 28.08L193.993 23.76H182.913L180.833 28.08C180.566 28.6133 180.353 29 180.193 29.24C180.06 29.48 179.82 29.7333 179.473 30C179.153 30.24 178.726 30.36 178.193 30.36C177.686 30.36 176.98 30.1333 176.073 29.68C174.526 28.9333 173.753 28.08 173.753 27.12C173.753 26.6667 173.98 25.9867 174.433 25.08L185.233 2.72C185.526 2.10666 185.966 1.61333 186.553 1.24C187.166 0.866665 187.806 0.679998 188.473 0.679998C189.913 0.679998 190.98 1.37333 191.673 2.76ZM188.433 12.36L185.793 17.84H191.113L188.433 12.36ZM226.339 0.679998C226.952 0.679998 227.406 0.706666 227.699 0.76C228.019 0.786666 228.366 0.906665 228.739 1.12C229.139 1.33333 229.419 1.69333 229.579 2.2C229.739 2.70666 229.819 3.38666 229.819 4.24C229.819 5.09333 229.739 5.77333 229.579 6.28C229.419 6.78667 229.139 7.14667 228.739 7.36C228.339 7.54667 227.979 7.66667 227.659 7.72C227.366 7.74666 226.899 7.76 226.259 7.76H214.019V11.8H221.899C222.539 11.8 223.006 11.8267 223.299 11.88C223.619 11.9067 223.979 12.0267 224.379 12.24C225.072 12.64 225.419 13.6933 225.419 15.4C225.419 17.2667 224.912 18.3733 223.899 18.72C223.472 18.8533 222.792 18.92 221.859 18.92H214.019V26.48C214.019 27.12 213.992 27.5867 213.939 27.88C213.912 28.1733 213.792 28.52 213.579 28.92C213.206 29.64 212.166 30 210.459 30C208.592 30 207.499 29.4933 207.179 28.48C207.019 28.0533 206.939 27.3733 206.939 26.44V4.2C206.939 2.84 207.192 1.92 207.699 1.44C208.206 0.933332 209.166 0.679998 210.579 0.679998H226.339ZM235.928 0.639999H258.168C259.021 0.639999 259.648 0.746666 260.048 0.96C260.448 1.14667 260.714 1.45333 260.848 1.88C260.981 2.30667 261.048 2.86667 261.048 3.56C261.048 4.25333 260.981 4.81333 260.848 5.24C260.714 5.64 260.488 5.92 260.168 6.08C259.688 6.32 259.008 6.44 258.128 6.44H250.488V26.56C250.488 27.1733 250.461 27.6267 250.408 27.92C250.381 28.2133 250.261 28.56 250.048 28.96C249.861 29.3333 249.514 29.6 249.008 29.76C248.501 29.92 247.834 30 247.008 30C246.181 30 245.514 29.92 245.008 29.76C244.528 29.6 244.181 29.3333 243.968 28.96C243.781 28.56 243.661 28.2133 243.608 27.92C243.581 27.6 243.568 27.1333 243.568 26.52V6.44H235.888C235.034 6.44 234.408 6.34667 234.008 6.16C233.608 5.94667 233.341 5.62667 233.208 5.2C233.074 4.77333 233.008 4.21333 233.008 3.52C233.008 2.82667 233.074 2.28 233.208 1.88C233.341 1.45333 233.568 1.16 233.888 0.999999C234.368 0.759999 235.048 0.639999 235.928 0.639999Z" fill="white"/>
</svg>
