<svg width="135" height="30" viewBox="0 0 135 30" fill="none" xmlns="http://www.w3.org/2000/svg">
<path d="M48.2391 9.3822C41.7787 9.3822 37.2405 13.3512 37.2405 19.5479C37.2405 25.7445 41.6995 29.8643 48.1638 29.8643C52.8301 29.8643 56.637 27.9118 57.9148 24.659C58.0543 24.3084 57.8394 23.9164 57.4663 23.8486L52.4795 22.9515C52.2345 22.9063 51.9933 23.0231 51.8614 23.2342C51.2093 24.2858 50.0748 24.9944 48.5444 24.9944C46.7164 24.9944 45.3934 24.0069 44.7752 22.371C44.6282 21.979 44.9109 21.5569 45.333 21.5569H58.254C58.5669 21.5569 58.827 21.3156 58.8496 21.0028C58.8835 20.558 58.8986 20.0039 58.8986 19.627C58.8986 13.3889 54.6657 9.38597 48.2391 9.38597V9.3822ZM51.0359 17.7725H45.22C44.8242 17.7725 44.5302 17.3918 44.647 17.0112C45.171 15.3037 46.3734 14.2596 48.0959 14.2596C49.8185 14.2596 51.1565 15.4394 51.6126 17.0036C51.7257 17.3881 51.4392 17.7763 51.0397 17.7763L51.0359 17.7725Z" fill="#1150CB"/>
<path d="M99.0579 9.87195H95.5713C94.5825 9.87195 93.7809 10.6735 93.7809 11.6623V28.0736C93.7809 29.0624 94.5825 29.864 95.5713 29.864H99.0579C100.047 29.864 100.848 29.0624 100.848 28.0736V11.6623C100.848 10.6735 100.047 9.87195 99.0579 9.87195Z" fill="#1150CB"/>
<path d="M97.2976 0.0078125C94.9908 0.0078125 93.2909 1.59466 93.2909 3.86375C93.2909 6.13284 94.9908 7.75738 97.2976 7.75738C99.6044 7.75738 101.342 6.13284 101.342 3.86375C101.342 1.59466 99.6798 0.0078125 97.2976 0.0078125Z" fill="#FF592C"/>
<path d="M117.629 19.6079C117.474 19.393 117.478 19.1028 117.64 18.8917L123.132 11.798C123.739 11.014 123.181 9.87193 122.186 9.87193H116.924C116.535 9.87193 116.174 10.0604 115.951 10.377L111.319 16.9129C111.274 16.977 111.198 17.0146 111.119 17.0146H111.112C110.976 17.0146 110.867 16.9053 110.867 16.7696V1.7982C110.867 0.810662 110.064 0.0078125 109.076 0.0078125H105.59C104.602 0.0078125 103.799 0.810662 103.799 1.7982V28.0736C103.799 29.0612 104.602 29.864 105.59 29.864H109.076C110.064 29.864 110.867 29.0612 110.867 28.0736V21.7978C110.867 21.6621 110.976 21.5528 111.112 21.5528C111.194 21.5528 111.274 21.5943 111.319 21.6659L116.317 29.325C116.535 29.6642 116.912 29.8678 117.316 29.8678H122.751C123.727 29.8678 124.293 28.7596 123.716 27.9718L117.632 19.6117L117.629 19.6079Z" fill="#1150CB"/>
<path d="M130.638 21.975C128.331 21.8167 126.409 23.641 126.409 25.9139C126.409 28.1868 128.177 29.8641 130.359 29.8641C132.632 29.8641 134.456 27.9418 134.298 25.635C134.162 23.6863 132.587 22.1107 130.638 21.975Z" fill="#1150CB"/>
<path d="M127.6 0.0078125H133.11C133.77 0.0078125 134.305 0.543045 134.305 1.20266V18.805C134.305 19.4647 133.77 19.9999 133.11 19.9999H127.6C126.94 19.9999 126.405 19.4647 126.405 18.805V1.20266C126.405 0.543045 126.94 0.0078125 127.6 0.0078125Z" fill="#1150CB"/>
<path d="M73.3574 9.872H70.489C69.9952 9.872 69.5919 9.47246 69.5919 8.97492V4.97952C69.5919 4.3199 69.0567 3.78467 68.3971 3.78467H64.5411C63.5536 3.78467 62.7507 4.58752 62.7507 5.57506V8.97492C62.7507 9.46869 62.3512 9.872 61.8536 9.872H60.5872C60.2555 9.872 59.9916 10.1396 59.9916 10.4675V14.3009C59.9916 14.6326 60.2593 14.8964 60.5872 14.8964H61.5898C62.0836 14.8964 62.4869 15.2959 62.4869 15.7935V22.3444C62.4869 26.8411 65.246 29.8641 69.5165 29.8641C69.5429 29.8641 69.5655 29.8641 69.5919 29.8641H73.9529C74.6125 29.8641 75.1478 29.3288 75.1478 28.6692V26.0308C75.1478 25.3711 74.6125 24.8359 73.9529 24.8359H72.253C70.783 24.8359 69.5919 23.6448 69.5919 22.1748V15.7897C69.5919 15.2959 69.9914 14.8926 70.489 14.8926H73.3574C74.3449 14.8926 75.1478 14.0898 75.1478 13.1022V11.6586C75.1478 10.6711 74.3449 9.86823 73.3574 9.86823V9.872Z" fill="#1150CB"/>
<path d="M90.3642 9.86468H87.1453C86.6515 9.86468 86.2482 9.46514 86.2482 8.9676V5.56774C86.2482 4.58019 85.4453 3.77734 84.4578 3.77734H81.2012C80.2136 3.77734 79.4108 4.58019 79.4108 5.56774V8.9676C79.4108 9.46137 79.0112 9.86468 78.5137 9.86468H78.2498C77.9181 9.86468 77.6543 10.1323 77.6543 10.4602V14.2935C77.6543 14.6252 77.9219 14.8891 78.2498 14.8891C78.7436 14.8891 79.1469 15.2886 79.1469 15.7862V22.3371C79.1469 26.8338 81.906 29.8568 86.1766 29.8568C86.2029 29.8568 86.2256 29.8568 86.2519 29.8568H90.368C91.0276 29.8568 91.5628 29.3215 91.5628 28.6619V26.0234C91.5628 25.3638 91.0276 24.8286 90.368 24.8286H88.913C87.443 24.8286 86.2519 23.6375 86.2519 22.1675V15.7824C86.2519 15.2886 86.6515 14.8853 87.149 14.8853H90.368C91.0276 14.8853 91.5628 14.3501 91.5628 13.6905V11.052C91.5628 10.3924 91.0276 9.85714 90.368 9.85714L90.3642 9.86468Z" fill="#1150CB"/>
<path fill-rule="evenodd" clip-rule="evenodd" d="M30.4671 29.5891H20.0074C18.8239 29.5891 17.6931 29.0991 16.8865 28.2359L14.2706 25.4391C14.0558 25.213 13.758 25.081 13.4452 25.081C12.6235 25.081 12.0769 25.9254 12.4086 26.6754L13.0381 28.0851C13.3547 28.79 12.8346 29.5891 12.0619 29.5891H8.69969C3.89767 29.5891 0.0078125 25.6992 0.0078125 20.8972V9.30675C0.0078125 4.5085 3.89767 0.614868 8.69969 0.614868H12.3822C13.1323 0.614868 13.6487 1.36495 13.3811 2.06226L12.4124 4.61027C12.3596 4.7535 12.3332 4.89673 12.3332 5.03996C12.3332 5.66943 12.8421 6.23104 13.5243 6.23104C13.856 6.23104 14.1726 6.09158 14.395 5.85412L18.0323 1.96803C18.839 1.10487 19.9697 0.614868 21.1533 0.614868H30.2635C30.7686 0.614868 31.0325 1.22172 30.6857 1.5911L21.1005 11.8321C20.8254 12.1261 20.4447 12.292 20.0414 12.292H16.4266C15.4165 12.292 14.444 12.6388 13.66 13.2795L13.2115 13.6414C12.9212 13.8826 12.5971 14.0824 12.2541 14.2369L10.7464 14.9342C10.5466 15.0247 10.3845 15.1717 10.2677 15.3489C10.1509 15.5335 10.0905 15.7559 10.0943 15.9859C10.1056 16.5249 10.5278 16.9696 11.0555 17.0752L13.3019 17.5275C13.4753 17.5614 13.6449 17.5802 13.8221 17.5802H19.9396C20.3391 17.5802 20.7236 17.7461 20.995 18.0363L30.893 28.6128C31.2398 28.9822 30.9759 29.5891 30.4709 29.5891H30.4671ZM34.1986 3.30222V11.587C34.1986 11.9753 33.882 12.2919 33.4938 12.2919H30.011C29.4984 12.2919 29.1554 11.7604 29.3664 11.293L33.0905 3.06099C33.3468 2.49183 34.1986 2.67652 34.1986 3.29845V3.30222ZM34.1986 26.434V18.2849V18.2811C34.1986 17.8929 33.882 17.5763 33.4937 17.5763H30.6517C30.158 17.5763 29.815 18.0701 29.9921 18.5337L33.0791 26.6413C33.3053 27.2406 34.1986 27.0786 34.1986 26.434Z" fill="#1150CB"/>
</svg>
