<svg width="102" height="24" viewBox="0 0 102 24" fill="none" xmlns="http://www.w3.org/2000/svg">
<path d="M5.89688 0.599998H23.2729V23H19.4969V3.704H9.32088C9.04354 10.0187 8.88354 13.368 8.84088 13.752C8.54221 17.6773 7.84888 20.2907 6.76088 21.592C5.90754 22.6373 4.68088 23.16 3.08088 23.16C2.31288 23.16 1.54488 23.1173 0.776875 23.032V19.992C1.54488 20.0347 2.03554 20.056 2.24888 20.056C2.54754 20.056 2.81421 20.0133 3.04888 19.928C3.30488 19.8213 3.52888 19.6507 3.72088 19.416C3.91288 19.1813 4.08354 18.936 4.23288 18.68C4.40354 18.4027 4.54221 18.04 4.64888 17.592C4.77688 17.1227 4.88354 16.6747 4.96888 16.248C5.07554 15.8213 5.16088 15.288 5.22488 14.648C5.28888 13.9867 5.34221 13.3787 5.38488 12.824C5.42754 12.248 5.47021 11.544 5.51288 10.712C5.55554 9.85867 5.58754 9.09067 5.60888 8.408C5.63021 7.72533 5.66221 6.88267 5.70488 5.88C5.72621 5.13333 5.73688 4.55733 5.73688 4.152C5.75821 3.72533 5.77954 3.17067 5.80088 2.488C5.84354 1.80533 5.87554 1.176 5.89688 0.599998ZM34.5224 5.848C37.1677 5.848 39.1837 6.41333 40.5704 7.544C41.957 8.67467 42.6504 10.3493 42.6504 12.568V23H39.2904V19.576C37.861 22.1147 35.3864 23.384 31.8664 23.384C29.7544 23.384 28.165 22.936 27.0984 22.04C26.0317 21.144 25.4984 19.9707 25.4984 18.52C25.4984 16.92 26.149 15.704 27.4504 14.872C28.7517 14.04 30.7037 13.528 33.3064 13.336L39.0344 12.856V11.832C39.0344 10.808 38.6504 9.98667 37.8824 9.368C37.1357 8.728 36.0157 8.39733 34.5224 8.376C33.221 8.376 32.1544 8.62133 31.3224 9.112C30.4904 9.60267 29.9997 10.3173 29.8504 11.256H26.4904C26.5544 10.296 26.8104 9.464 27.2584 8.76C27.7064 8.03467 28.3037 7.46933 29.0504 7.064C29.797 6.63733 30.6184 6.328 31.5144 6.136C32.4317 5.944 33.4344 5.848 34.5224 5.848ZM32.8904 20.856C34.7677 20.856 36.261 20.3867 37.3704 19.448C38.4797 18.5093 39.0344 17.3253 39.0344 15.896V15.064L33.7544 15.48C30.6184 15.736 29.0504 16.696 29.0504 18.36C29.0504 19.1067 29.3704 19.7147 30.0104 20.184C30.6504 20.632 31.6104 20.856 32.8904 20.856ZM58.1911 6.232V9.208H48.4951V23H44.9111V6.232H58.1911ZM59.9356 21.048C58.229 19.4907 57.3756 17.3467 57.3756 14.616C57.3756 11.8853 58.229 9.74133 59.9356 8.184C61.6423 6.62667 63.9356 5.848 66.8156 5.848C69.6956 5.848 71.9783 6.62667 73.6636 8.184C75.3703 9.74133 76.2236 11.8853 76.2236 14.616C76.2236 17.3467 75.3703 19.4907 73.6636 21.048C71.9783 22.6053 69.6956 23.384 66.8156 23.384C63.9356 23.384 61.6423 22.6053 59.9356 21.048ZM62.4956 10.296C61.4503 11.384 60.9276 12.824 60.9276 14.616C60.9276 16.408 61.4503 17.8587 62.4956 18.968C63.5623 20.056 65.0023 20.6 66.8156 20.6C68.6076 20.6 70.0263 20.056 71.0716 18.968C72.1383 17.8587 72.6716 16.408 72.6716 14.616C72.6716 12.824 72.1383 11.384 71.0716 10.296C70.0263 9.18667 68.6076 8.632 66.8156 8.632C65.0023 8.632 63.5623 9.18667 62.4956 10.296ZM95.7099 6.232H101.662V23H98.1739V8.504L91.9979 23H87.4219L81.2459 8.536V23H77.7899V6.232H83.8059L89.7579 21.08L95.7099 6.232Z" fill="white"/>
</svg>
