<svg width="292" height="32" viewBox="0 0 292 32" fill="none" xmlns="http://www.w3.org/2000/svg">
<path d="M18.3273 26.7939H23.4425V0.596774H18.3273V26.7939ZM48.9577 18.2686L32.8935 0.596774H29.4103V26.7939H34.5255V9.28045L50.4801 26.7939H54.1338V0.596774H49.0186L48.9577 18.2686ZM5.6611 0.596774H0.545898V26.7939H13.748V22.5313H5.6611V0.596774ZM59.9432 26.7939H74.5581V22.5313H65.0949V15.2238H74.0344V10.9612H65.0949V4.87162H74.5702V0.596774H59.9554L59.9432 26.7939ZM261.421 12.5201L272.383 0.657669H266.049L256.513 11.6188V0.657669H251.642V26.7939H256.513V15.4796L257.098 15.1508L266.281 26.7939H272.979L261.421 13.0072V12.5201ZM246.015 8.52534C246.015 2.8499 242.13 0.730744 236.868 0.730744H234.433H229.561V26.7939H234.433V16.1373H234.847L241.947 26.7939H248.329L240.181 15.8328C241.876 15.5326 243.403 14.625 244.477 13.2799C245.551 11.9349 246.098 10.2445 246.015 8.52534ZM236.272 12.6906H234.384V4.9447H236.235C238.854 4.9447 240.79 6.00428 240.79 8.82982C240.839 11.3631 238.939 12.6419 236.284 12.6419L236.272 12.6906ZM284.476 10.9612C280.043 9.74325 279.897 8.00164 279.897 7.18565C279.897 6.10171 280.884 4.28703 283.624 4.28703C284.442 4.29906 285.248 4.48818 285.986 4.8414C286.724 5.19461 287.376 5.70352 287.899 6.33311C289.263 4.82291 290.529 3.20309 290.529 3.20309C289.635 2.15676 288.508 1.33345 287.24 0.798564C285.971 0.263679 284.596 0.0319522 283.222 0.121791C278.606 0.121791 274.697 2.64286 274.697 7.64845C274.697 11.8746 278.229 13.5553 280.116 14.3469C282.004 15.1386 286.279 15.5648 286.279 19.2186C286.282 20.1504 285.921 21.0467 285.273 21.7158C284.624 22.3849 283.739 22.7738 282.808 22.7992C281.598 22.7799 280.41 22.478 279.338 21.9176C278.266 21.3573 277.339 20.5539 276.633 19.5718C273.418 22.5069 273.442 22.5069 273.442 22.5069C274.358 24.0243 275.657 25.2736 277.21 26.1288C278.762 26.9841 280.512 27.4151 282.284 27.3785C288.081 27.3785 291.455 23.6396 291.455 18.8532C291.455 14.0668 287.558 11.8137 284.476 10.9612ZM212.462 0C202.718 0 198.407 7.17347 198.407 13.7014C198.407 19.6935 202.292 27.342 212.279 27.342C222.266 27.342 226.151 19.6935 226.151 13.7014C226.151 7.70935 222.205 0 212.462 0ZM212.291 22.6043C205.982 22.6043 203.534 17.6109 203.534 13.6893C203.534 9.42659 206.238 4.73766 212.401 4.73766C218.563 4.73766 221.048 9.77979 221.048 13.7014C221.048 17.6231 218.612 22.6043 212.315 22.6043H212.291ZM137.451 8.52534C137.451 2.8499 133.566 0.730744 128.304 0.730744H125.868H120.997V26.7939H125.868V16.1373H126.283L133.395 26.7939H139.777L131.629 15.8328C133.322 15.53 134.846 14.6213 135.917 13.2764C136.989 11.9316 137.534 10.2427 137.451 8.52534ZM127.707 12.6906H125.868V4.9447H127.72C130.338 4.9447 132.275 6.00428 132.275 8.82982C132.275 11.3631 130.375 12.6419 127.72 12.6419L127.707 12.6906ZM140.824 4.87162H146.695V26.7939H151.566V4.87162H157.4V0.64549H140.824V4.87162ZM102.521 0.64549L91.4382 26.7939H96.6631L98.9284 21.2646H110.036L112.325 26.7939H117.55L106.504 0.64549H102.521ZM100.646 17.0507L104.482 7.69717L108.331 17.0507H100.646ZM186.264 18.4756L180.077 0.64549H177.459L170.955 18.4756L165.256 0.64549H159.945L168.873 26.7939H172.819L173.282 25.6856L178.726 10.1695L184.023 25.6856L184.45 26.7939H188.396L197.847 0.64549H192.537L186.264 18.4756Z" fill="black"/>
</svg>
