<svg width="157" height="161" viewBox="0 0 157 161" fill="none" xmlns="http://www.w3.org/2000/svg">
<g filter="url(#filter0_b_262_55)">
<rect width="157" height="161" rx="78.5" fill="white" fill-opacity="0.32"/>
<rect x="2.5" y="2.5" width="152" height="156" rx="76" stroke="white" stroke-width="5"/>
<path d="M140.035 124.767C136.662 129.626 132.76 134.025 128.33 137.964C123.899 141.838 119.071 145.154 113.847 147.911C108.688 150.669 103.166 152.803 97.2807 154.313C91.461 155.823 85.41 156.578 79.1276 156.578C72.1837 156.578 65.5045 155.659 59.0898 153.821C52.7412 152.048 46.7892 149.52 41.2341 146.237C35.6791 142.889 30.62 138.916 26.0568 134.32C21.4939 129.658 17.5921 124.504 14.3516 118.858C11.1112 113.211 8.59818 107.137 6.81261 100.637C5.02707 94.1371 4.13428 87.3742 4.13428 80.3486C4.13428 73.3233 5.02707 66.5604 6.81261 60.0603C8.59818 53.5598 11.1112 47.4866 14.3516 41.8399C17.5921 36.1932 21.4939 31.0719 26.0568 26.4756C30.62 21.814 35.6791 17.8417 41.2341 14.5587C46.7892 11.2102 52.7742 8.64928 59.1888 6.87656C65.6038 5.03803 72.2498 4.11902 79.1276 4.11902C85.0133 4.11902 90.7007 4.77557 96.1895 6.08866C101.678 7.40175 106.903 9.27305 111.863 11.7026C116.823 14.1318 121.452 17.0865 125.75 20.5664C130.049 24.0463 133.918 27.9203 137.357 32.1881L122.179 44.4991C117.021 38.13 110.739 33.0743 103.332 29.332C95.9911 25.5894 87.923 23.7181 79.1276 23.7181C71.4562 23.7181 64.281 25.2283 57.6017 28.2486C50.9224 31.203 45.0697 35.2411 40.0439 40.3626C35.0178 45.4839 31.0499 51.4916 28.1399 58.3859C25.2965 65.2143 23.8747 72.5354 23.8747 80.3486C23.8747 88.1621 25.2965 95.516 28.1399 102.41C31.0499 109.304 35.0178 115.312 40.0439 120.433C45.0697 125.555 50.9224 129.626 57.6017 132.646C64.281 135.601 71.4562 137.078 79.1276 137.078C83.7568 137.078 88.2207 136.52 92.5192 135.404C96.8177 134.287 100.852 132.712 104.621 130.676C108.457 128.641 111.995 126.178 115.235 123.29C118.542 120.401 121.452 117.183 123.965 113.638L140.035 124.767Z" fill="black"/>
<path d="M138 75H22V76H138V75Z" fill="black"/>
<path d="M132.351 66.2618L135.679 63.2221L132.351 60.1677L133.077 58.5929L138 63.2148L133.077 67.8366L132.351 66.2618Z" fill="black"/>
<path d="M128.52 56H130.041L125.118 71.5575H123.597L128.52 56Z" fill="black"/>
<path d="M111 60.3215H112.569V61.054C112.986 60.7268 113.383 60.4973 113.761 60.3655C114.143 60.2336 114.516 60.1677 114.88 60.1677C115.356 60.1677 115.798 60.2654 116.204 60.4607C116.611 60.6512 116.962 60.9368 117.259 61.3177C117.556 61.6986 117.787 62.1747 117.953 62.746C118.123 63.3124 118.207 63.9692 118.207 64.7163V68.9646H116.644V65.0679C116.644 64.5943 116.595 64.1719 116.496 63.8007C116.4 63.4247 116.261 63.1098 116.077 62.8559C115.897 62.5971 115.676 62.4017 115.415 62.2699C115.157 62.1332 114.867 62.0648 114.546 62.0648C114.376 62.0648 114.201 62.0892 114.021 62.1381C113.844 62.1869 113.67 62.2577 113.496 62.3505C113.327 62.4384 113.163 62.5507 113.004 62.6874C112.845 62.8192 112.7 62.9706 112.569 63.1415V68.9646H111V60.3215Z" fill="black"/>
<path d="M101.684 66.2399C101.684 65.8248 101.75 65.4464 101.88 65.1045C102.011 64.7627 102.207 64.4697 102.469 64.2256C102.73 63.9765 103.055 63.7861 103.444 63.6543C103.836 63.5175 104.292 63.4492 104.811 63.4492C105.196 63.4492 105.6 63.4882 106.024 63.5664C106.452 63.6445 106.892 63.7641 107.344 63.9253C107.326 63.6518 107.266 63.4003 107.164 63.1708C107.061 62.9364 106.918 62.7362 106.734 62.5702C106.554 62.3993 106.335 62.2675 106.077 62.1747C105.823 62.0819 105.533 62.0355 105.208 62.0355C105.032 62.0355 104.837 62.0502 104.625 62.0795C104.413 62.1088 104.194 62.1527 103.968 62.2113C103.742 62.2699 103.518 62.3431 103.295 62.431C103.076 62.5189 102.871 62.6239 102.681 62.746L102.204 60.9661C102.44 60.8489 102.693 60.7415 102.961 60.6438C103.233 60.5462 103.511 60.4632 103.793 60.3948C104.076 60.3215 104.359 60.2654 104.641 60.2263C104.924 60.1873 105.198 60.1677 105.463 60.1677C106.632 60.1677 107.501 60.5803 108.07 61.4056C108.639 62.2308 108.923 63.4956 108.923 65.1998V68.9646H107.355V68.1516C107.192 68.2834 107.014 68.4079 106.819 68.5251C106.629 68.6423 106.42 68.7449 106.194 68.8328C105.968 68.9207 105.724 68.989 105.463 69.0379C105.205 69.0916 104.931 69.1184 104.641 69.1184C104.154 69.1184 103.725 69.0452 103.354 68.8987C102.986 68.7522 102.679 68.5496 102.432 68.2908C102.184 68.0319 101.997 67.7292 101.87 67.3825C101.746 67.0309 101.684 66.65 101.684 66.2399ZM103.338 66.1666C103.338 66.3082 103.364 66.4449 103.417 66.5768C103.47 66.7037 103.555 66.8185 103.672 66.921C103.788 67.0187 103.937 67.0993 104.117 67.1628C104.3 67.2214 104.521 67.2507 104.779 67.2507C105.055 67.2507 105.321 67.2165 105.579 67.1481C105.837 67.0797 106.077 66.9894 106.3 66.8771C106.523 66.7648 106.724 66.6354 106.904 66.4889C107.084 66.3424 107.234 66.191 107.355 66.0348V65.6539C107.114 65.5611 106.876 65.483 106.639 65.4195C106.406 65.356 106.182 65.3072 105.966 65.273C105.754 65.2339 105.553 65.2071 105.362 65.1924C105.175 65.1778 105.01 65.1705 104.869 65.1705C104.576 65.1705 104.332 65.1973 104.138 65.251C103.944 65.3047 103.786 65.378 103.666 65.4708C103.546 65.5587 103.461 65.6636 103.412 65.7857C103.362 65.9078 103.338 66.0348 103.338 66.1666Z" fill="black"/>
<path d="M93.7301 70.0487C93.8926 70.1952 94.0692 70.3246 94.26 70.4369C94.4508 70.5492 94.6486 70.642 94.8535 70.7152C95.0619 70.7885 95.2739 70.8422 95.4894 70.8764C95.7049 70.9154 95.9186 70.9349 96.1306 70.9349C96.8513 70.9349 97.406 70.7201 97.7946 70.2904C98.1867 69.8656 98.3828 69.2259 98.3828 68.3713V68.0783C98.245 68.2102 98.0896 68.3323 97.9165 68.4446C97.7469 68.552 97.5632 68.6448 97.3653 68.7229C97.171 68.801 96.9644 68.8621 96.7453 68.906C96.5298 68.9451 96.3108 68.9646 96.0882 68.9646C95.6113 68.9646 95.1838 68.8694 94.8058 68.679C94.4313 68.4836 94.1134 68.2004 93.8519 67.8293C93.594 67.4533 93.3962 66.9918 93.2584 66.4449C93.1206 65.898 93.0518 65.273 93.0518 64.5698V60.3215H94.615V63.9692C94.615 65.0142 94.7581 65.7857 95.0443 66.2838C95.334 66.777 95.7897 67.0236 96.4115 67.0236C96.8495 67.0236 97.2364 66.9186 97.572 66.7086C97.9112 66.4938 98.1814 66.2203 98.3828 65.8883V60.3215H99.9514V67.9758C99.9514 68.801 99.8666 69.5164 99.697 70.1219C99.5274 70.7323 99.2801 71.2377 98.9551 71.6381C98.6336 72.0385 98.2379 72.3364 97.7681 72.5317C97.2982 72.7319 96.7648 72.832 96.1677 72.832C95.5848 72.832 95.0407 72.7466 94.5355 72.5757C94.0304 72.4048 93.5676 72.1728 93.1471 71.8798L93.7301 70.0487Z" fill="black"/>
<path d="M78.6326 60.3215H80.2011V61.054C80.5933 60.722 80.9748 60.4925 81.3458 60.3655C81.7203 60.2336 82.0859 60.1677 82.4427 60.1677C82.9408 60.1677 83.3983 60.2776 83.8152 60.4973C84.2321 60.7171 84.5889 61.0491 84.8857 61.4935C85.1153 61.2493 85.3414 61.0442 85.564 60.8782C85.7865 60.7073 86.0091 60.5706 86.2317 60.468C86.4542 60.3606 86.6803 60.2849 86.91 60.241C87.1396 60.1921 87.3763 60.1677 87.6201 60.1677C88.1323 60.1677 88.5969 60.2654 89.0138 60.4607C89.4306 60.6512 89.7857 60.9368 90.0789 61.3177C90.3757 61.6986 90.6035 62.1747 90.7625 62.746C90.925 63.3124 91.0063 63.9692 91.0063 64.7163V68.9646H89.443V65.0679C89.443 64.5943 89.3936 64.1719 89.2946 63.8007C89.1992 63.4247 89.0632 63.1098 88.8866 62.8559C88.7135 62.5971 88.505 62.4017 88.2613 62.2699C88.021 62.1332 87.7561 62.0648 87.4664 62.0648C87.3074 62.0648 87.1449 62.0868 86.9789 62.1307C86.8128 62.1698 86.6503 62.2333 86.4913 62.3212C86.3359 62.4091 86.1893 62.5214 86.0515 62.6581C85.9137 62.7899 85.7936 62.9462 85.6912 63.1269V68.9646H84.1279V65.0679C84.1279 64.5943 84.0784 64.1719 83.9795 63.8007C83.8841 63.4247 83.7481 63.1098 83.5715 62.8559C83.3983 62.5971 83.1881 62.4017 82.9408 62.2699C82.6971 62.1332 82.4286 62.0648 82.1354 62.0648C81.9552 62.0648 81.7732 62.0917 81.5895 62.1454C81.4094 62.1942 81.2345 62.265 81.0649 62.3578C80.8989 62.4506 80.7417 62.5629 80.5933 62.6947C80.4484 62.8266 80.3177 62.9755 80.2011 63.1415V68.9646H78.6326V60.3215Z" fill="black"/>
<path d="M69.2266 64.6431C69.2266 64.0229 69.3166 63.4418 69.4968 62.8998C69.6805 62.3578 69.9402 61.8841 70.2758 61.4788C70.615 61.0735 71.023 60.7537 71.4999 60.5193C71.9804 60.2849 72.5192 60.1677 73.1162 60.1677C73.7132 60.1677 74.2502 60.2849 74.7272 60.5193C75.2076 60.7537 75.6157 61.0735 75.9513 61.4788C76.2904 61.8841 76.5501 62.3578 76.7303 62.8998C76.914 63.4418 77.0058 64.0229 77.0058 64.6431C77.0058 65.2632 76.914 65.8443 76.7303 66.3863C76.5501 66.9284 76.2904 67.402 75.9513 67.8073C75.6157 68.2126 75.2076 68.5325 74.7272 68.7669C74.2502 69.0012 73.7132 69.1184 73.1162 69.1184C72.5192 69.1184 71.9804 69.0012 71.4999 68.7669C71.023 68.5325 70.615 68.2126 70.2758 67.8073C69.9402 67.402 69.6805 66.9284 69.4968 66.3863C69.3166 65.8443 69.2266 65.2632 69.2266 64.6431ZM70.8746 64.6431C70.8746 64.9898 70.9241 65.3194 71.023 65.6319C71.1255 65.9395 71.2721 66.213 71.4628 66.4523C71.6571 66.6867 71.8921 66.8747 72.1676 67.0163C72.4467 67.153 72.7629 67.2214 73.1162 67.2214C73.4695 67.2214 73.7839 67.153 74.0595 67.0163C74.3386 66.8747 74.5735 66.6867 74.7643 66.4523C74.9586 66.213 75.1052 65.9395 75.2041 65.6319C75.3066 65.3194 75.3578 64.9898 75.3578 64.6431C75.3578 64.2964 75.3066 63.9668 75.2041 63.6543C75.1052 63.3417 74.9586 63.0683 74.7643 62.8339C74.5735 62.5946 74.3386 62.4066 74.0595 62.2699C73.7839 62.1283 73.4695 62.0575 73.1162 62.0575C72.7629 62.0575 72.4467 62.1283 72.1676 62.2699C71.8921 62.4066 71.6571 62.5946 71.4628 62.8339C71.2721 63.0683 71.1255 63.3417 71.023 63.6543C70.9241 63.9668 70.8746 64.2964 70.8746 64.6431Z" fill="black"/>
<path d="M61.5426 70.4295C61.7405 70.5272 61.9418 70.6078 62.1468 70.6713C62.3517 70.7396 62.5495 70.7933 62.7403 70.8324C62.9346 70.8764 63.12 70.9057 63.2967 70.9203C63.4733 70.9398 63.6305 70.9496 63.7683 70.9496C64.1852 70.9496 64.5473 70.8788 64.8547 70.7372C65.1656 70.6005 65.4234 70.4149 65.6284 70.1805C65.8368 69.9461 65.9922 69.6727 66.0947 69.3602C66.1971 69.0525 66.2484 68.7253 66.2484 68.3786V68.0051C66.1141 68.1321 65.9569 68.2541 65.7767 68.3713C65.5966 68.4885 65.3987 68.5911 65.1832 68.679C64.9677 68.7669 64.7381 68.8377 64.4943 68.8914C64.2541 68.9451 64.005 68.9719 63.7471 68.9719C63.2349 68.9719 62.7615 68.867 62.3269 68.657C61.8924 68.4421 61.5161 68.1443 61.1982 67.7634C60.8802 67.3776 60.6312 66.9162 60.451 66.379C60.2744 65.8419 60.186 65.2461 60.186 64.5918C60.186 63.9228 60.2797 63.3173 60.4669 62.7753C60.6541 62.2284 60.912 61.7621 61.2406 61.3763C61.5727 60.9905 61.9648 60.6927 62.417 60.4827C62.8692 60.2727 63.3603 60.1677 63.8902 60.1677C64.1163 60.1677 64.3406 60.1873 64.5632 60.2263C64.7858 60.2654 64.9977 60.3191 65.1991 60.3875C65.404 60.4558 65.5948 60.5388 65.7714 60.6365C65.9516 60.7293 66.1106 60.8318 66.2484 60.9441V60.3215H67.8169V67.9758C67.8169 68.762 67.7304 69.4578 67.5573 70.0633C67.3842 70.6688 67.1298 71.1767 66.7942 71.5868C66.4621 72.0019 66.0488 72.3144 65.5542 72.5244C65.0596 72.7393 64.4925 72.8467 63.8531 72.8467C63.6235 72.8467 63.385 72.832 63.1377 72.8027C62.8904 72.7783 62.6413 72.7393 62.3905 72.6855C62.1432 72.6367 61.8977 72.5757 61.6539 72.5024C61.4137 72.4341 61.1823 72.3535 60.9597 72.2607L61.5426 70.4295ZM61.8341 64.5698C61.8341 64.9165 61.8836 65.2437 61.9825 65.5513C62.0849 65.8541 62.2298 66.1202 62.417 66.3497C62.6043 66.5743 62.8304 66.7526 63.0953 66.8844C63.3603 67.0114 63.6588 67.0749 63.9909 67.0749C64.2064 67.0749 64.4201 67.048 64.6321 66.9943C64.8476 66.9357 65.0525 66.8551 65.2468 66.7526C65.4446 66.65 65.6284 66.5255 65.7979 66.379C65.971 66.2325 66.1212 66.0689 66.2484 65.8883V63.039C66.0894 62.8632 65.9216 62.7143 65.7449 62.5922C65.5683 62.4701 65.3881 62.37 65.2044 62.2919C65.0207 62.2137 64.8352 62.1576 64.648 62.1234C64.4608 62.0843 64.2788 62.0648 64.1022 62.0648C63.7418 62.0648 63.4203 62.1307 63.1377 62.2626C62.8586 62.3944 62.6219 62.5751 62.4276 62.8046C62.2368 63.0292 62.0902 63.2929 61.9878 63.5957C61.8853 63.8984 61.8341 64.2231 61.8341 64.5698Z" fill="black"/>
<path d="M55.1145 60.3215H56.6831V61.5667C57.0293 61.2103 57.3949 60.9026 57.78 60.6438C58.1651 60.385 58.5484 60.1872 58.93 60.0505L59.391 62.0355C58.7869 62.1185 58.2552 62.3065 57.7959 62.5995C57.3402 62.8876 56.9692 63.2953 56.6831 63.8227V68.9646H55.1145V60.3215Z" fill="black"/>
<path d="M45.7507 64.6431C45.7507 64.0229 45.8408 63.4418 46.021 62.8998C46.2047 62.3578 46.4644 61.8841 46.8 61.4788C47.1391 61.0735 47.5472 60.7537 48.0241 60.5193C48.5046 60.2849 49.0433 60.1677 49.6404 60.1677C50.2374 60.1677 50.7744 60.2849 51.2513 60.5193C51.7318 60.7537 52.1398 61.0735 52.4755 61.4788C52.8146 61.8841 53.0743 62.3578 53.2545 62.8998C53.4382 63.4418 53.53 64.0229 53.53 64.6431C53.53 65.2632 53.4382 65.8443 53.2545 66.3863C53.0743 66.9284 52.8146 67.402 52.4755 67.8073C52.1398 68.2126 51.7318 68.5325 51.2513 68.7669C50.7744 69.0012 50.2374 69.1184 49.6404 69.1184C49.0433 69.1184 48.5046 69.0012 48.0241 68.7669C47.5472 68.5325 47.1391 68.2126 46.8 67.8073C46.4644 67.402 46.2047 66.9284 46.021 66.3863C45.8408 65.8443 45.7507 65.2632 45.7507 64.6431ZM47.3988 64.6431C47.3988 64.9898 47.4483 65.3194 47.5472 65.6319C47.6496 65.9395 47.7962 66.213 47.987 66.4523C48.1813 66.6867 48.4162 66.8747 48.6918 67.0163C48.9709 67.153 49.2871 67.2214 49.6404 67.2214C49.9937 67.2214 50.3081 67.153 50.5836 67.0163C50.8627 66.8747 51.0977 66.6867 51.2884 66.4523C51.4827 66.213 51.6294 65.9395 51.7283 65.6319C51.8307 65.3194 51.8819 64.9898 51.8819 64.6431C51.8819 64.2964 51.8307 63.9668 51.7283 63.6543C51.6294 63.3417 51.4827 63.0683 51.2884 62.8339C51.0977 62.5946 50.8627 62.4066 50.5836 62.2699C50.3081 62.1283 49.9937 62.0575 49.6404 62.0575C49.2871 62.0575 48.9709 62.1283 48.6918 62.2699C48.4162 62.4066 48.1813 62.5946 47.987 62.8339C47.7962 63.0683 47.6496 63.3417 47.5472 63.6543C47.4483 63.9668 47.3988 64.2964 47.3988 64.6431Z" fill="black"/>
<path d="M39.7893 59.5525H36.7317V57.5162H44.5269V59.5525H41.4692V68.9646H39.7893V59.5525Z" fill="black"/>
<path d="M34.649 66.2618L33.923 67.8366L29 63.2148L33.923 58.5929L34.649 60.1677L31.3211 63.2221L34.649 66.2618Z" fill="black"/>
<path d="M33.8809 93.459C34.4342 93.7715 34.9941 94.0547 35.5605 94.3086C36.1335 94.556 36.7259 94.7676 37.3379 94.9434C37.9499 95.1126 38.5911 95.2428 39.2617 95.334C39.9388 95.4251 40.6582 95.4707 41.4199 95.4707C42.3379 95.4707 43.1191 95.4121 43.7637 95.2949C44.4082 95.1712 44.9323 95.0052 45.3359 94.7969C45.7461 94.582 46.0423 94.3281 46.2246 94.0352C46.4134 93.7422 46.5078 93.4232 46.5078 93.0781C46.5078 92.5247 46.2767 92.0885 45.8145 91.7695C45.3522 91.444 44.6393 91.2812 43.6758 91.2812C43.2526 91.2812 42.8066 91.3105 42.3379 91.3691C41.8691 91.4212 41.3939 91.4798 40.9121 91.5449C40.4368 91.61 39.9648 91.6719 39.4961 91.7305C39.0339 91.7826 38.5977 91.8086 38.1875 91.8086C37.5039 91.8086 36.8464 91.7207 36.2148 91.5449C35.5898 91.3691 35.0332 91.1055 34.5449 90.7539C34.0632 90.4023 33.679 89.9629 33.3926 89.4355C33.1061 88.9082 32.9629 88.293 32.9629 87.5898C32.9629 87.1732 33.0182 86.7598 33.1289 86.3496C33.2461 85.9395 33.4284 85.5488 33.6758 85.1777C33.9297 84.8001 34.2552 84.4518 34.6523 84.1328C35.0495 83.8073 35.528 83.5273 36.0879 83.293C36.6543 83.0586 37.3053 82.8763 38.041 82.7461C38.7832 82.6094 39.6263 82.541 40.5703 82.541C41.2539 82.541 41.9408 82.5801 42.6309 82.6582C43.321 82.7298 43.9915 82.834 44.6426 82.9707C45.3001 83.1074 45.9316 83.2734 46.5371 83.4688C47.1426 83.6576 47.7057 83.8691 48.2266 84.1035L46.8691 86.6035C46.4395 86.4147 45.9772 86.2422 45.4824 86.0859C44.9876 85.9232 44.4701 85.7832 43.9297 85.666C43.3893 85.5488 42.8294 85.4577 42.25 85.3926C41.6771 85.321 41.0911 85.2852 40.4922 85.2852C39.6393 85.2852 38.9362 85.347 38.3828 85.4707C37.8359 85.5944 37.3997 85.7539 37.0742 85.9492C36.7487 86.138 36.5208 86.3529 36.3906 86.5938C36.2669 86.8281 36.2051 87.0625 36.2051 87.2969C36.2051 87.7526 36.4102 88.127 36.8203 88.4199C37.2305 88.7064 37.8555 88.8496 38.6953 88.8496C39.0339 88.8496 39.4212 88.8268 39.8574 88.7812C40.3001 88.7292 40.7624 88.6738 41.2441 88.6152C41.7324 88.5566 42.2272 88.5046 42.7285 88.459C43.2363 88.4069 43.7279 88.3809 44.2031 88.3809C45.1016 88.3809 45.8958 88.4818 46.5859 88.6836C47.2826 88.8854 47.8652 89.1751 48.334 89.5527C48.8027 89.9238 49.1576 90.3763 49.3984 90.9102C49.6393 91.4375 49.7598 92.0299 49.7598 92.6875C49.7598 93.5664 49.5547 94.3509 49.1445 95.041C48.7409 95.7246 48.1615 96.304 47.4062 96.7793C46.6576 97.248 45.7526 97.6061 44.6914 97.8535C43.6302 98.0944 42.4486 98.2148 41.1465 98.2148C40.2871 98.2148 39.4473 98.1595 38.627 98.0488C37.8066 97.9447 37.0189 97.7949 36.2637 97.5996C35.515 97.3978 34.7988 97.1602 34.1152 96.8867C33.4382 96.6068 32.8099 96.3008 32.2305 95.9688L33.8809 93.459ZM57.7676 85.4512H52.1328V82.7363H66.498V85.4512H60.8633V98H57.7676V85.4512ZM69.2324 82.7363H72.3281V91.1445C72.3281 91.8346 72.4225 92.4499 72.6113 92.9902C72.8001 93.5241 73.0801 93.9766 73.4512 94.3477C73.8288 94.7188 74.2943 95.002 74.8477 95.1973C75.401 95.3861 76.0456 95.4805 76.7812 95.4805C77.5104 95.4805 78.1517 95.3861 78.7051 95.1973C79.265 95.002 79.7305 94.7188 80.1016 94.3477C80.4792 93.9766 80.7624 93.5241 80.9512 92.9902C81.14 92.4499 81.2344 91.8346 81.2344 91.1445V82.7363H84.3301V91.5156C84.3301 92.5182 84.1608 93.4297 83.8223 94.25C83.4837 95.0703 82.9922 95.7734 82.3477 96.3594C81.7031 96.9453 80.9121 97.3978 79.9746 97.7168C79.0436 98.0358 77.9792 98.1953 76.7812 98.1953C75.5833 98.1953 74.5156 98.0358 73.5781 97.7168C72.6471 97.3978 71.8594 96.9453 71.2148 96.3594C70.5703 95.7734 70.0788 95.0703 69.7402 94.25C69.4017 93.4297 69.2324 92.5182 69.2324 91.5156V82.7363ZM88.1094 82.7363H93.7051C95.3392 82.7363 96.7585 82.9121 97.9629 83.2637C99.1673 83.6152 100.163 84.1198 100.951 84.7773C101.745 85.4284 102.335 86.2227 102.719 87.1602C103.109 88.0911 103.305 89.1393 103.305 90.3047C103.305 91.4115 103.113 92.4368 102.729 93.3809C102.344 94.3184 101.758 95.1322 100.971 95.8223C100.183 96.5059 99.1868 97.043 97.9824 97.4336C96.778 97.8177 95.3587 98.0098 93.7246 98.0098L88.1094 98V82.7363ZM94.4668 95.3242C95.3913 95.3242 96.2018 95.207 96.8984 94.9727C97.5951 94.7318 98.1745 94.3932 98.6367 93.957C99.1055 93.5208 99.457 92.9935 99.6914 92.375C99.9258 91.7565 100.043 91.0664 100.043 90.3047C100.043 89.556 99.9258 88.8822 99.6914 88.2832C99.457 87.6777 99.1055 87.1667 98.6367 86.75C98.1745 86.3268 97.5951 86.0013 96.8984 85.7734C96.2018 85.5456 95.3913 85.4316 94.4668 85.4316H91.2051V95.3242H94.4668ZM106.02 82.7363H109.135V98H106.02V82.7363ZM112.191 90.3242C112.191 89.1719 112.403 88.1172 112.826 87.1602C113.249 86.2031 113.842 85.3828 114.604 84.6992C115.372 84.0091 116.29 83.4753 117.357 83.0977C118.432 82.7201 119.62 82.5312 120.922 82.5312C122.217 82.5312 123.402 82.7201 124.477 83.0977C125.551 83.4753 126.469 84.0091 127.23 84.6992C127.999 85.3828 128.594 86.2031 129.018 87.1602C129.441 88.1172 129.652 89.1719 129.652 90.3242C129.652 91.4831 129.441 92.5475 129.018 93.5176C128.594 94.4811 127.999 95.3112 127.23 96.0078C126.469 96.7044 125.551 97.248 124.477 97.6387C123.402 98.0228 122.217 98.2148 120.922 98.2148C119.62 98.2148 118.432 98.0228 117.357 97.6387C116.29 97.248 115.372 96.7044 114.604 96.0078C113.842 95.3112 113.249 94.4811 112.826 93.5176C112.403 92.5475 112.191 91.4831 112.191 90.3242ZM115.287 90.3242C115.287 91.112 115.427 91.8216 115.707 92.4531C115.993 93.0846 116.387 93.625 116.889 94.0742C117.396 94.5169 117.992 94.8587 118.676 95.0996C119.366 95.3405 120.115 95.4609 120.922 95.4609C121.729 95.4609 122.475 95.3405 123.158 95.0996C123.848 94.8587 124.444 94.5169 124.945 94.0742C125.447 93.625 125.84 93.0846 126.127 92.4531C126.413 91.8216 126.557 91.112 126.557 90.3242C126.557 89.5365 126.413 88.8301 126.127 88.2051C125.84 87.5801 125.447 87.0527 124.945 86.623C124.444 86.1868 123.848 85.8548 123.158 85.627C122.475 85.3991 121.729 85.2852 120.922 85.2852C120.115 85.2852 119.366 85.3991 118.676 85.627C117.992 85.8548 117.396 86.1868 116.889 86.623C116.387 87.0527 115.993 87.5801 115.707 88.2051C115.427 88.8301 115.287 89.5365 115.287 90.3242Z" fill="black"/>
</g>
<defs>
<filter id="filter0_b_262_55" x="-10" y="-10" width="177" height="181" filterUnits="userSpaceOnUse" color-interpolation-filters="sRGB">
<feFlood flood-opacity="0" result="BackgroundImageFix"/>
<feGaussianBlur in="BackgroundImageFix" stdDeviation="5"/>
<feComposite in2="SourceAlpha" operator="in" result="effect1_backgroundBlur_262_55"/>
<feBlend mode="normal" in="SourceGraphic" in2="effect1_backgroundBlur_262_55" result="shape"/>
</filter>
</defs>
</svg>
