<svg width="157" height="161" viewBox="0 0 157 161" fill="none" xmlns="http://www.w3.org/2000/svg">
<g filter="url(#filter0_b_23_9)">
<rect width="157" height="161" rx="78.5" fill="white" fill-opacity="0.32"/>
<path d="M32.4902 64.8939C32.1635 64.7559 32 64.5282 32 64.2109C32 64.0591 32.0426 63.9279 32.1279 63.8176C32.2131 63.6934 32.334 63.5967 32.4902 63.5278L43.7441 58.436C43.9572 58.7671 44.0638 59.0915 44.0638 59.4088C44.0638 59.6572 43.9998 59.878 43.872 60.0712C43.7441 60.2643 43.5523 60.4092 43.2965 60.5058L34.7708 64.2109L43.2752 67.9159C43.5167 68.0126 43.7014 68.1643 43.8293 68.3713C43.9572 68.5783 44.0212 68.8128 44.0212 69.075C44.0212 69.4201 43.9289 69.7306 43.7441 70.0065L32.4902 64.8939ZM57.9619 70.4411C56.7683 70.4411 55.7026 70.2273 54.7648 69.7995C53.8269 69.358 53.0952 68.7507 52.5694 67.978C52.0579 67.1915 51.8021 66.3014 51.8021 65.3079V60.6714C51.8021 59.6779 52.0579 58.7947 52.5694 58.022C53.0952 57.2493 53.8199 56.6491 54.7434 56.2212C55.6672 55.7934 56.7257 55.5796 57.9192 55.5796C59.1128 55.5796 60.1715 55.7658 61.095 56.1384C62.0188 56.4971 62.7362 57.0009 63.2478 57.6494C63.7736 58.2979 64.0364 59.0431 64.0364 59.8849C64.0364 60.2988 63.8944 60.6232 63.6101 60.8577C63.326 61.0922 62.9494 61.2096 62.4805 61.2096C62.3811 61.2096 62.2319 61.1957 62.0329 61.1682C62.0614 61.0026 62.0755 60.7403 62.0755 60.3816C62.0755 59.7882 61.8979 59.2571 61.5426 58.7878C61.2016 58.3186 60.7114 57.9531 60.072 57.6908C59.4468 57.4286 58.7292 57.2975 57.9192 57.2975C57.1236 57.2975 56.4132 57.4424 55.7878 57.7322C55.1627 58.0081 54.6725 58.4084 54.3172 58.9327C53.9761 59.4434 53.8056 60.0229 53.8056 60.6714V65.3079C53.8056 65.9702 53.9761 66.5637 54.3172 67.088C54.6725 67.5986 55.1627 67.9987 55.7878 68.2885C56.4273 68.5783 57.1519 68.7232 57.9619 68.7232C58.7861 68.7232 59.5178 68.5921 60.1572 68.3299C60.7966 68.0676 61.2941 67.7089 61.6492 67.2536C62.0045 66.7843 62.1821 66.2462 62.1821 65.6391C62.1821 65.4182 62.168 65.1562 62.1394 64.8525C62.3385 64.825 62.4805 64.8111 62.5657 64.8111C63.0346 64.8111 63.4113 64.9421 63.6954 65.2044C63.9938 65.4666 64.143 65.8185 64.143 66.26C64.143 67.0741 63.8802 67.7986 63.3543 68.4334C62.8287 69.0682 62.0968 69.565 61.159 69.9237C60.2354 70.2687 59.1697 70.4411 57.9619 70.4411ZM72.1912 70.4411C71.0117 70.4411 69.9532 70.2203 69.0154 69.7788C68.0916 69.3234 67.3669 68.7025 66.8413 67.9159C66.3155 67.1155 66.0527 66.2325 66.0527 65.2665V60.7128C66.0527 59.7468 66.3155 58.8775 66.8413 58.1048C67.3669 57.3182 68.0916 56.7041 69.0154 56.2626C69.9532 55.8072 71.0117 55.5796 72.1912 55.5796C73.3848 55.5796 74.4432 55.8072 75.367 56.2626C76.3048 56.7041 77.0365 57.3182 77.5623 58.1048C78.0879 58.8775 78.351 59.7468 78.351 60.7128V65.2665C78.351 66.2325 78.0879 67.1155 77.5623 67.9159C77.0365 68.7025 76.3048 69.3234 75.367 69.7788C74.4292 70.2203 73.3705 70.4411 72.1912 70.4411ZM72.1912 68.7439C73.5127 68.7439 74.5428 68.4265 75.2817 67.7917C76.0205 67.1569 76.3901 66.3083 76.3901 65.2458V60.7542C76.3901 59.6918 76.0205 58.8499 75.2817 58.229C74.5428 57.5942 73.5127 57.2768 72.1912 57.2768C70.8838 57.2768 69.8607 57.5942 69.1219 58.229C68.383 58.8499 68.0136 59.6918 68.0136 60.7542V65.2458C68.0136 66.3083 68.383 67.1569 69.1219 67.7917C69.8607 68.4265 70.8838 68.7439 72.1912 68.7439ZM81.8249 70.2549C81.5408 70.2549 81.2991 70.1721 81.1003 70.0065C80.9014 69.827 80.8019 69.6064 80.8019 69.3441V56.6766C80.8019 56.4143 80.8942 56.2005 81.079 56.0349C81.2778 55.8555 81.5265 55.7659 81.8249 55.7659H86.8124C88.0203 55.7659 89.086 55.9867 90.0096 56.4282C90.9331 56.8697 91.6508 57.4907 92.1623 58.2911C92.6881 59.0776 92.9509 59.9815 92.9509 61.0026V64.9767C92.9509 65.9978 92.6881 66.9085 92.1623 67.7089C91.6508 68.5093 90.9261 69.1371 89.9883 69.5925C89.0647 70.034 88.006 70.2549 86.8124 70.2549H81.8249ZM86.5993 68.5576C87.9634 68.5576 89.0291 68.2471 89.7964 67.6261C90.5637 66.9913 90.9474 66.1151 90.9474 64.9974V60.9819C90.9474 59.878 90.5637 59.0155 89.7964 58.3946C89.0291 57.7736 87.9634 57.4631 86.5993 57.4631H82.8054V68.5576H86.5993ZM95.7258 56.6766C95.7258 56.4143 95.8253 56.2005 96.0242 56.0349C96.2233 55.8555 96.4648 55.7659 96.7489 55.7659H106.191C106.191 56.3454 106.07 56.7733 105.829 57.0492C105.587 57.3251 105.211 57.4631 104.699 57.4631H97.7293V62.0996H103.697C103.697 62.6792 103.577 63.107 103.335 63.3829C103.093 63.6588 102.724 63.7969 102.227 63.7969H97.7293V68.5576H105.147C105.644 68.5576 106.013 68.6956 106.255 68.9715C106.497 69.2475 106.617 69.6753 106.617 70.2549H96.7489C96.4648 70.2549 96.2233 70.1721 96.0242 70.0065C95.8253 69.827 95.7258 69.6064 95.7258 69.3441V56.6766ZM121.703 55.7659C121.831 55.5175 122.002 55.3312 122.215 55.207C122.442 55.0689 122.691 55 122.961 55C123.316 55 123.671 55.1103 124.026 55.3312L116.332 70.2549C116.062 70.7516 115.65 71 115.096 71C114.726 71 114.371 70.8826 114.03 70.6481L121.703 55.7659ZM126.256 70.0065C126.071 69.7306 125.979 69.4201 125.979 69.075C125.979 68.8128 126.043 68.5783 126.171 68.3713C126.299 68.1643 126.483 68.0126 126.725 67.9159L135.229 64.2109L126.704 60.5058C126.448 60.4092 126.256 60.2643 126.128 60.0712C126 59.878 125.936 59.6572 125.936 59.4088C125.936 59.0915 126.043 58.7671 126.256 58.436L137.51 63.5278C137.666 63.5967 137.787 63.6934 137.872 63.8176C137.957 63.9279 138 64.0591 138 64.2109C138 64.5282 137.837 64.7559 137.51 64.8939L126.256 70.0065Z" fill="black"/>
<path d="M42.012 101C40.0707 101 38.3366 100.637 36.8097 99.9109C35.3046 99.1847 34.1267 98.1705 33.276 96.8677C32.4253 95.5649 32 94.0808 32 92.415V86.5209C32 84.8552 32.4145 83.3816 33.2433 82.1003C34.094 80.7975 35.2611 79.7939 36.7442 79.0891C38.2274 78.363 39.9288 78 41.8484 78C43.768 78 45.4693 78.2883 46.9525 78.8649C48.4576 79.4201 49.6246 80.2103 50.4534 81.2354C51.2822 82.239 51.6968 83.3922 51.6968 84.695C51.6968 85.4852 51.4242 86.1151 50.8788 86.585C50.3553 87.0334 49.6463 87.2577 48.7521 87.2577C48.3159 87.2577 47.8359 87.1936 47.3124 87.0655C47.356 86.5529 47.3779 86.051 47.3779 85.5599C47.3779 84.4281 46.8652 83.5097 45.8401 82.805C44.815 82.1003 43.4843 81.7479 41.8484 81.7479C40.2343 81.7479 38.9145 82.1964 37.8894 83.0933C36.8859 83.9688 36.3843 85.1114 36.3843 86.5209V92.415C36.3843 93.8459 36.9078 95.0098 37.9548 95.9067C39.0018 96.8036 40.3541 97.2521 42.012 97.2521C43.6479 97.2521 44.9786 96.8997 46.0037 96.195C47.0288 95.4903 47.5415 94.5827 47.5415 93.4721C47.5415 92.9596 47.5196 92.4685 47.476 91.9986C48.0214 91.8919 48.4795 91.8384 48.8502 91.8384C49.7663 91.8384 50.497 92.0733 51.0424 92.5432C51.5878 93.0131 51.8604 93.6537 51.8604 94.4652C51.8604 95.7251 51.4458 96.8571 50.617 97.8607C49.7882 98.8432 48.6212 99.612 47.1161 100.167C45.6329 100.722 43.9316 101 42.012 101ZM55.0192 80.2423C55.0192 79.6872 55.2266 79.2279 55.6409 78.8649C56.0554 78.4805 56.5789 78.2883 57.2114 78.2883H65.9473C68.3031 78.2883 70.1245 78.8969 71.4114 80.1142C72.7201 81.3315 73.3745 83.0398 73.3745 85.2395C73.3745 86.4995 73.1127 87.5674 72.5892 88.4429C72.0657 89.2972 71.2697 89.9805 70.2008 90.493V90.5891C72.1203 91.422 73.08 93.0022 73.08 95.3301V97.8287C73.08 98.8538 72.7093 99.644 71.9676 100.199C71.2261 100.733 70.1353 101 68.6957 101V95.5223C68.6957 94.3905 68.4667 93.5576 68.0086 93.0237C67.5505 92.4897 66.8526 92.2228 65.9146 92.2228H59.3381V97.8287C59.3381 98.8752 58.9674 99.6652 58.2257 100.199C57.5058 100.733 56.4372 101 55.0192 101V80.2423ZM65.7183 88.571C66.7653 88.571 67.5724 88.2827 68.1395 87.7061C68.7067 87.1081 68.9902 86.2752 68.9902 85.2075C68.9902 83.0292 67.8996 81.9401 65.7183 81.9401H59.3381V88.571H65.7183ZM79.2295 101C78.2915 100.893 77.5498 100.573 77.0046 100.039C76.4811 99.505 76.2193 98.8323 76.2193 98.0209C76.2193 97.4017 76.3719 96.761 76.6774 96.0989L84.17 79.4095C84.5843 78.4699 85.3041 78 86.3295 78C87.3327 78 88.0417 78.4699 88.4562 79.4095L95.9488 96.0989C96.2541 96.8036 96.4069 97.4443 96.4069 98.0209C96.4069 98.8323 96.1341 99.505 95.5889 100.039C95.0654 100.573 94.3237 100.893 93.364 101L90.6156 94.9136H82.0106L79.2295 101ZM89.2742 91.2618L85.6751 82.4847L85.2825 82.6448L86.0677 84.6309L83.3193 91.2618H89.2742ZM99.5923 80.2423C99.5923 79.7084 99.7994 79.2493 100.214 78.8649C100.65 78.4805 101.174 78.2883 101.784 78.2883H116.606C116.606 79.5696 116.377 80.5092 115.919 81.1072C115.483 81.6838 114.763 81.9721 113.76 81.9721H103.977V87.3858H112.68C112.68 88.6671 112.451 89.6067 111.993 90.2047C111.557 90.7813 110.837 91.0696 109.833 91.0696H103.977V97.9568C103.977 99.0245 103.628 99.8042 102.93 100.295C102.232 100.765 101.119 101 99.5923 101V80.2423ZM125.73 82.0042H117.845C117.845 79.527 118.99 78.2883 121.281 78.2883H138C138 80.7655 136.844 82.0042 134.532 82.0042H130.115V97.8287C130.115 98.8538 129.744 99.644 129.002 100.199C128.261 100.733 127.17 101 125.73 101V82.0042Z" fill="black"/>
<path d="M140.035 124.767C136.662 129.626 132.76 134.025 128.33 137.964C123.899 141.838 119.071 145.154 113.847 147.911C108.688 150.669 103.166 152.803 97.2807 154.313C91.461 155.823 85.41 156.578 79.1276 156.578C72.1837 156.578 65.5045 155.659 59.0898 153.821C52.7412 152.048 46.7892 149.52 41.2341 146.237C35.6791 142.889 30.62 138.916 26.0568 134.32C21.4939 129.658 17.5921 124.504 14.3516 118.858C11.1112 113.211 8.59818 107.137 6.81261 100.637C5.02707 94.1371 4.13428 87.3742 4.13428 80.3486C4.13428 73.3233 5.02707 66.5604 6.81261 60.0602C8.59818 53.5598 11.1112 47.4866 14.3516 41.8399C17.5921 36.1932 21.4939 31.0719 26.0568 26.4756C30.62 21.814 35.6791 17.8417 41.2341 14.5587C46.7892 11.2102 52.7742 8.64928 59.1888 6.87656C65.6038 5.03803 72.2498 4.11902 79.1276 4.11902C85.0133 4.11902 90.7007 4.77557 96.1895 6.08866C101.678 7.40175 106.903 9.27305 111.863 11.7026C116.823 14.1318 121.452 17.0865 125.75 20.5664C130.049 24.0463 133.918 27.9203 137.357 32.1881L122.179 44.4991C117.021 38.13 110.739 33.0743 103.332 29.332C95.9911 25.5894 87.923 23.7181 79.1276 23.7181C71.4562 23.7181 64.281 25.2283 57.6017 28.2486C50.9224 31.203 45.0697 35.2411 40.0439 40.3626C35.0178 45.4839 31.0499 51.4916 28.1399 58.3859C25.2965 65.2143 23.8747 72.5354 23.8747 80.3486C23.8747 88.1621 25.2965 95.516 28.1399 102.41C31.0499 109.304 35.0178 115.312 40.0439 120.433C45.0697 125.555 50.9224 129.626 57.6017 132.646C64.281 135.601 71.4562 137.078 79.1276 137.078C83.7568 137.078 88.2207 136.52 92.5192 135.404C96.8177 134.287 100.852 132.712 104.621 130.676C108.457 128.641 111.995 126.178 115.235 123.29C118.542 120.401 121.452 117.183 123.965 113.638L140.035 124.767Z" fill="black"/>
<path d="M138 75H22V76H138V75Z" fill="black"/>
<rect x="2.5" y="2.5" width="152" height="156" rx="76" stroke="white" stroke-width="5"/>
</g>
<defs>
<filter id="filter0_b_23_9" x="-10" y="-10" width="177" height="181" filterUnits="userSpaceOnUse" color-interpolation-filters="sRGB">
<feFlood flood-opacity="0" result="BackgroundImageFix"/>
<feGaussianBlur in="BackgroundImageFix" stdDeviation="5"/>
<feComposite in2="SourceAlpha" operator="in" result="effect1_backgroundBlur_23_9"/>
<feBlend mode="normal" in="SourceGraphic" in2="effect1_backgroundBlur_23_9" result="shape"/>
</filter>
</defs>
</svg>
