<svg width="34" height="34" viewBox="0 0 34 34" fill="none" xmlns="http://www.w3.org/2000/svg">
<path d="M7.13667 14.7817C9.77667 19.97 14.03 24.2233 19.2183 26.8633L23.2517 22.83C23.765 22.3167 24.48 22.17 25.1217 22.3717C27.175 23.05 29.375 23.4167 31.6667 23.4167C32.1529 23.4167 32.6192 23.6098 32.963 23.9536C33.3068 24.2975 33.5 24.7638 33.5 25.25V31.6667C33.5 32.1529 33.3068 32.6192 32.963 32.963C32.6192 33.3068 32.1529 33.5 31.6667 33.5C23.4008 33.5 15.4734 30.2164 9.62851 24.3715C3.78362 18.5266 0.5 10.5992 0.5 2.33333C0.5 1.8471 0.693154 1.38079 1.03697 1.03697C1.38079 0.693154 1.8471 0.5 2.33333 0.5H8.75C9.23623 0.5 9.70255 0.693154 10.0464 1.03697C10.3902 1.38079 10.5833 1.8471 10.5833 2.33333C10.5833 4.625 10.95 6.825 11.6283 8.87833C11.83 9.52 11.6833 10.235 11.17 10.7483L7.13667 14.7817Z" fill="white"/>
</svg>
