<svg width="209" height="68" viewBox="0 0 209 68" fill="none" xmlns="http://www.w3.org/2000/svg">
<path d="M56.9894 9.78794V23.2771H56.6374H51.9055V18.5306V14.8875H48.2735H41.0838L35.9998 9.78794L33.5136 7.21188L30.8635 9.78794L25.7795 14.8875H18.5898H14.8419V18.6469V25.8588L9.75795 30.9583L7.18978 33.6166L9.75795 36.275L14.8419 41.3745V48.5864V52.2295H18.4738H25.6636L30.7475 57.3291L33.3977 59.9051L35.8838 57.3291L36.6786 56.5318L40.9678 52.2295H48.1576H51.9055V48.4701V47.4589H52.9135H56.9894V57.3291H43.1265L40.3555 60.1377L33.3977 67.117L23.5858 57.3291H9.75795V43.4587L0 33.6166L9.75795 23.7746V9.78794H23.7018L33.5136 0L43.2177 9.78794H56.9894Z" fill="url(#paint0_linear_56_285)"/>
<path d="M33.3222 41.5481V34.0039L30.9218 39.309H28.8239L26.4235 34.0039V41.5481H22.49V27.2261H26.7866L29.8729 33.9635L32.9793 27.2261H37.2557V41.5481H33.3222ZM40.1603 41.5481V27.2261H44.0938V35.9403L49.3788 27.2261H53.0501V41.5481H49.1166V32.8339L43.8921 41.5481H40.1603ZM56.0164 41.5481V27.2261H65.356V30.6553H59.9499V41.5481H56.0164ZM67.4384 41.5481V27.2261H73.6109C74.3102 27.2261 74.9557 27.3673 75.5474 27.6497C76.1391 27.9322 76.6501 28.3154 77.0805 28.7995C77.5108 29.2702 77.8403 29.8014 78.0689 30.3931C78.311 30.9848 78.432 31.5832 78.432 32.1884C78.432 33.0356 78.2303 33.8358 77.8268 34.5888C77.4368 35.3419 76.8855 35.9605 76.1727 36.4446C75.4735 36.9153 74.6531 37.1507 73.7118 37.1507H71.3719V41.5481H67.4384ZM71.3719 33.7214H73.4496C73.6109 33.7214 73.7656 33.6744 73.9135 33.5802C74.0614 33.4861 74.1825 33.3247 74.2766 33.0961C74.3842 32.8675 74.438 32.5649 74.438 32.1884C74.438 31.785 74.3775 31.4757 74.2564 31.2605C74.1488 31.0319 74.0076 30.8772 73.8328 30.7965C73.6714 30.7024 73.5101 30.6553 73.3487 30.6553H71.3719V33.7214ZM82.6235 27.2261H87.0209L91.5797 41.5481H87.5857L86.7183 38.7442H82.9059L82.0587 41.5481H78.0445L82.6235 27.2261ZM86.093 36.1219L84.8222 31.0789L83.4908 36.1219H86.093ZM105.791 27.2261V41.5481H101.857V35.9403H97.0562V41.5481H93.1227V27.2261H97.0562V32.5111H101.857V27.2261H105.791ZM119.76 30.6553H115.644V41.5481H111.711V30.6553H107.576V27.2261H119.76V30.6553ZM125.071 34.2661C125.071 33.392 125.232 32.538 125.555 31.7043C125.891 30.8571 126.375 30.0905 127.007 29.4047C127.64 28.7188 128.406 28.1742 129.307 27.7708C130.222 27.3539 131.25 27.1455 132.393 27.1455C133.765 27.1455 134.962 27.4346 135.984 28.0128C137.006 28.5776 137.766 29.3307 138.263 30.2721L135.258 32.4103C135.083 31.9396 134.827 31.5765 134.491 31.321C134.168 31.0655 133.812 30.8907 133.422 30.7965C133.046 30.689 132.676 30.6352 132.313 30.6352C131.748 30.6352 131.257 30.7495 130.84 30.9781C130.437 31.1933 130.101 31.4824 129.832 31.8455C129.576 32.2086 129.381 32.612 129.247 33.0558C129.126 33.4996 129.065 33.9433 129.065 34.3871C129.065 34.8847 129.139 35.3621 129.287 35.8193C129.435 36.2765 129.65 36.6867 129.932 37.0498C130.215 37.3994 130.558 37.6751 130.961 37.8768C131.378 38.0786 131.842 38.1794 132.353 38.1794C132.716 38.1794 133.086 38.1256 133.462 38.018C133.839 37.897 134.182 37.7087 134.491 37.4532C134.801 37.1977 135.036 36.8548 135.197 36.4245L138.405 38.3408C138.122 39.0401 137.651 39.6385 136.993 40.1361C136.334 40.6336 135.587 41.0169 134.753 41.2859C133.92 41.5414 133.093 41.6691 132.272 41.6691C131.21 41.6691 130.235 41.4607 129.347 41.0438C128.473 40.6135 127.714 40.0487 127.068 39.3494C126.436 38.6366 125.945 37.8432 125.595 36.9691C125.246 36.0815 125.071 35.1805 125.071 34.2661ZM150.365 38.1189V41.5481H140.158V27.2261H150.183V30.6553H144.091V32.6725H149.295V35.8597H144.091V38.1189H150.365ZM152.547 41.5481V27.2261H158.719C159.419 27.2261 160.064 27.3673 160.656 27.6497C161.247 27.9322 161.758 28.3154 162.189 28.7995C162.619 29.2702 162.949 29.8014 163.177 30.3931C163.419 30.9848 163.54 31.5832 163.54 32.1884C163.54 33.0356 163.339 33.8358 162.935 34.5888C162.545 35.3419 161.994 35.9605 161.281 36.4446C160.582 36.9153 159.761 37.1507 158.82 37.1507H156.48V41.5481H152.547ZM156.48 33.7214H158.558C158.719 33.7214 158.874 33.6744 159.022 33.5802C159.17 33.4861 159.291 33.3247 159.385 33.0961C159.492 32.8675 159.546 32.5649 159.546 32.1884C159.546 31.785 159.486 31.4757 159.365 31.2605C159.257 31.0319 159.116 30.8772 158.941 30.7965C158.78 30.7024 158.618 30.6553 158.457 30.6553H156.48V33.7214ZM177.651 37.8768C177.651 38.7375 177.416 39.4368 176.945 39.9747C176.488 40.5126 175.87 40.9093 175.09 41.1648C174.31 41.4203 173.449 41.5481 172.508 41.5481H165.468V27.2261H173.778C174.451 27.2261 175.029 27.4077 175.513 27.7708C176.011 28.1204 176.387 28.5776 176.643 29.1425C176.912 29.7073 177.046 30.2922 177.046 30.8974C177.046 31.5563 176.871 32.1951 176.522 32.8137C176.186 33.4323 175.675 33.8963 174.989 34.2056C175.809 34.4476 176.455 34.8712 176.925 35.4764C177.409 36.0815 177.651 36.8817 177.651 37.8768ZM173.657 37.07C173.657 36.8279 173.61 36.6195 173.516 36.4446C173.435 36.2564 173.321 36.1084 173.173 36.0009C173.025 35.8933 172.851 35.8395 172.649 35.8395H169.401V38.2399H172.508C172.723 38.2399 172.918 38.1929 173.093 38.0987C173.267 38.0046 173.402 37.8701 173.496 37.6953C173.604 37.5205 173.657 37.312 173.657 37.07ZM169.401 30.5747V32.7734H172.084C172.259 32.7734 172.427 32.7465 172.588 32.6927C172.75 32.6254 172.884 32.5111 172.992 32.3498C173.099 32.1884 173.153 31.9598 173.153 31.6639C173.153 31.395 173.106 31.1865 173.012 31.0386C172.931 30.8772 172.817 30.7629 172.669 30.6957C172.534 30.615 172.38 30.5747 172.205 30.5747H169.401ZM179.829 41.5481V27.2261H183.762V35.9403L189.047 27.2261H192.718V41.5481H188.785V32.8339L183.56 41.5481H179.829ZM194.817 34.2661C194.817 33.392 194.979 32.538 195.301 31.7043C195.638 30.8571 196.122 30.0905 196.754 29.4047C197.386 28.7188 198.152 28.1742 199.053 27.7708C199.968 27.3539 200.997 27.1455 202.14 27.1455C203.511 27.1455 204.708 27.4346 205.73 28.0128C206.752 28.5776 207.512 29.3307 208.01 30.2721L205.004 32.4103C204.829 31.9396 204.574 31.5765 204.237 31.321C203.915 31.0655 203.558 30.8907 203.168 30.7965C202.792 30.689 202.422 30.6352 202.059 30.6352C201.494 30.6352 201.003 30.7495 200.586 30.9781C200.183 31.1933 199.847 31.4824 199.578 31.8455C199.322 32.2086 199.127 32.612 198.993 33.0558C198.872 33.4996 198.811 33.9433 198.811 34.3871C198.811 34.8847 198.885 35.3621 199.033 35.8193C199.181 36.2765 199.396 36.6867 199.679 37.0498C199.961 37.3994 200.304 37.6751 200.707 37.8768C201.124 38.0786 201.588 38.1794 202.099 38.1794C202.462 38.1794 202.832 38.1256 203.209 38.018C203.585 37.897 203.928 37.7087 204.237 37.4532C204.547 37.1977 204.782 36.8548 204.943 36.4245L208.151 38.3408C207.868 39.0401 207.398 39.6385 206.739 40.1361C206.08 40.6336 205.333 41.0169 204.5 41.2859C203.666 41.5414 202.839 41.6691 202.019 41.6691C200.956 41.6691 199.981 41.4607 199.094 41.0438C198.22 40.6135 197.46 40.0487 196.814 39.3494C196.182 38.6366 195.691 37.8432 195.342 36.9691C194.992 36.0815 194.817 35.1805 194.817 34.2661Z" fill="#0577EE"/>
<defs>
<linearGradient id="paint0_linear_56_285" x1="33.4556" y1="-0.0821908" x2="33.2906" y2="67.1992" gradientUnits="userSpaceOnUse">
<stop stop-color="#FD324E"/>
<stop offset="1" stop-color="#0368B9"/>
</linearGradient>
</defs>
</svg>
