<svg width="37" height="38" viewBox="0 0 37 38" fill="none" xmlns="http://www.w3.org/2000/svg">
<path d="M18.3333 0.666748C8.21333 0.666748 0 8.88008 0 19.0001C0 29.1201 8.21333 37.3334 18.3333 37.3334C28.4533 37.3334 36.6667 29.1201 36.6667 19.0001C36.6667 8.88008 28.4533 0.666748 18.3333 0.666748ZM26.84 13.1334C26.565 16.0301 25.3733 23.0701 24.7683 26.3151C24.5117 27.6901 23.9983 28.1484 23.5217 28.2034C22.4583 28.2951 21.6517 27.5068 20.625 26.8284C19.0117 25.7651 18.095 25.1051 16.5367 24.0784C14.7217 22.8867 15.895 22.2267 16.94 21.1634C17.215 20.8884 21.9083 16.6167 22 16.2317C22.0127 16.1734 22.011 16.1129 21.9951 16.0554C21.9791 15.9979 21.9493 15.9451 21.9083 15.9017C21.7983 15.8101 21.6517 15.8467 21.5233 15.8651C21.3583 15.9017 18.7917 17.6067 13.7867 20.9801C13.0533 21.4751 12.3933 21.7317 11.8067 21.7134C11.1467 21.6951 9.9 21.3467 8.965 21.0351C7.81 20.6684 6.91167 20.4667 6.985 19.8251C7.02167 19.4951 7.48 19.1651 8.34167 18.8167C13.695 16.4884 17.2517 14.9484 19.03 14.2151C24.1267 12.0884 25.1717 11.7217 25.8683 11.7217C26.015 11.7217 26.3633 11.7584 26.5833 11.9417C26.7667 12.0884 26.8217 12.2901 26.84 12.4367C26.8217 12.5467 26.8583 12.8767 26.84 13.1334Z" fill="#FFFAFA"/>
</svg>
