<svg width="440" height="31" viewBox="0 0 440 31" fill="none" xmlns="http://www.w3.org/2000/svg">
<path d="M2.98484 0.639999H25.2248C26.0782 0.639999 26.7048 0.746666 27.1048 0.96C27.5048 1.14667 27.7715 1.45333 27.9048 1.88C28.0382 2.30667 28.1048 2.86667 28.1048 3.56C28.1048 4.25333 28.0382 4.81333 27.9048 5.24C27.7715 5.64 27.5448 5.92 27.2248 6.08C26.7448 6.32 26.0648 6.44 25.1848 6.44H17.5448V26.56C17.5448 27.1733 17.5182 27.6267 17.4648 27.92C17.4382 28.2133 17.3182 28.56 17.1048 28.96C16.9182 29.3333 16.5715 29.6 16.0648 29.76C15.5582 29.92 14.8915 30 14.0648 30C13.2382 30 12.5715 29.92 12.0648 29.76C11.5848 29.6 11.2382 29.3333 11.0248 28.96C10.8382 28.56 10.7182 28.2133 10.6648 27.92C10.6382 27.6 10.6248 27.1333 10.6248 26.52V6.44H2.94484C2.09151 6.44 1.46484 6.34667 1.06484 6.16C0.664844 5.94667 0.398177 5.62667 0.264844 5.2C0.13151 4.77333 0.0648438 4.21333 0.0648438 3.52C0.0648438 2.82667 0.13151 2.28 0.264844 1.88C0.398177 1.45333 0.624844 1.16 0.944844 0.999999C1.42484 0.759999 2.10484 0.639999 2.98484 0.639999ZM43.2998 0.319998C47.2465 0.319998 50.6732 1.74666 53.5798 4.6C56.4865 7.45333 57.9398 11 57.9398 15.24C57.9398 19.4533 56.5532 23.0533 53.7798 26.04C51.0065 29 47.5932 30.48 43.5398 30.48C39.4865 30.48 36.0332 29.0133 33.1798 26.08C30.3532 23.1467 28.9398 19.6533 28.9398 15.6C28.9398 13.3867 29.3398 11.32 30.1398 9.4C30.9398 7.45333 32.0065 5.82667 33.3398 4.52C34.6732 3.21333 36.2065 2.18666 37.9398 1.44C39.6732 0.693332 41.4598 0.319998 43.2998 0.319998ZM36.0198 15.4C36.0198 17.7733 36.7798 19.7067 38.2998 21.2C39.8465 22.6667 41.5665 23.4 43.4598 23.4C45.3532 23.4 47.0598 22.68 48.5798 21.24C50.0998 19.8 50.8598 17.8667 50.8598 15.44C50.8598 13.0133 50.0865 11.0667 48.5398 9.6C47.0198 8.13333 45.3132 7.4 43.4198 7.4C41.5265 7.4 39.8198 8.14667 38.2998 9.64C36.7798 11.1067 36.0198 13.0267 36.0198 15.4ZM84.5955 25.04C84.9955 26 85.1955 26.6933 85.1955 27.12C85.1955 28.1333 84.3688 28.9867 82.7155 29.68C81.8621 30.0533 81.1688 30.24 80.6355 30.24C80.1288 30.24 79.7021 30.12 79.3555 29.88C79.0355 29.6133 78.7955 29.3467 78.6355 29.08C78.3688 28.5733 77.3288 26.16 75.5155 21.84L74.2755 21.92H69.2355V26.44C69.2355 27.0533 69.2088 27.52 69.1555 27.84C69.1288 28.1333 69.0088 28.48 68.7955 28.88C68.4221 29.6 67.3821 29.96 65.6755 29.96C63.8088 29.96 62.7155 29.4667 62.3955 28.48C62.2355 28.0267 62.1555 27.3333 62.1555 26.4V4.2C62.1555 3.58666 62.1688 3.13333 62.1955 2.84C62.2488 2.52 62.3821 2.16 62.5955 1.76C62.9688 1.04 64.0088 0.679998 65.7155 0.679998H74.3555C76.7021 0.679998 78.9821 1.53333 81.1955 3.24C82.2621 4.06667 83.1421 5.18667 83.8355 6.6C84.5288 8.01333 84.8755 9.58667 84.8755 11.32C84.8755 14.3333 83.8755 16.8133 81.8755 18.76C82.4621 20.1733 83.3688 22.2667 84.5955 25.04ZM69.2355 14.84H74.3555C75.1288 14.84 75.9021 14.5467 76.6755 13.96C77.4488 13.3733 77.8355 12.4933 77.8355 11.32C77.8355 10.1467 77.4488 9.26666 76.6755 8.68C75.9021 8.06666 75.1021 7.76 74.2755 7.76H69.2355V14.84ZM103.879 12.32H110.919C112.359 12.3733 113.239 12.7467 113.559 13.44C113.826 13.9467 113.959 14.6933 113.959 15.68V24.48C113.959 25.3333 113.586 26.1467 112.839 26.92C110.599 29.24 107.239 30.4 102.759 30.4C98.7859 30.4 95.3326 28.9067 92.3992 25.92C89.4659 22.9067 87.9992 19.28 87.9992 15.04C87.9992 10.8 89.4926 7.26666 92.4792 4.44C95.4659 1.58666 98.9859 0.159998 103.039 0.159998C106.186 0.159998 109.159 1.2 111.959 3.28C112.679 3.81333 113.039 4.41333 113.039 5.08C113.039 5.72 112.733 6.46667 112.119 7.32C111.079 8.73333 110.133 9.44 109.279 9.44C108.773 9.44 107.959 9.08 106.839 8.36C105.719 7.61333 104.386 7.24 102.839 7.24C100.813 7.24 99.0126 7.96 97.4392 9.4C95.8659 10.8133 95.0792 12.68 95.0792 15C95.0792 17.2933 95.8792 19.2533 97.4792 20.88C99.0792 22.48 100.893 23.28 102.919 23.28C104.386 23.28 105.706 23.04 106.879 22.56V18.2H103.719C102.893 18.2 102.306 18.0933 101.959 17.88C101.613 17.6667 101.386 17.36 101.279 16.96C101.173 16.5333 101.119 15.9733 101.119 15.28C101.119 14.56 101.173 13.9867 101.279 13.56C101.413 13.1333 101.639 12.84 101.959 12.68C102.439 12.44 103.079 12.32 103.879 12.32ZM132.514 0.319998C136.461 0.319998 139.887 1.74666 142.794 4.6C145.701 7.45333 147.154 11 147.154 15.24C147.154 19.4533 145.767 23.0533 142.994 26.04C140.221 29 136.807 30.48 132.754 30.48C128.701 30.48 125.247 29.0133 122.394 26.08C119.567 23.1467 118.154 19.6533 118.154 15.6C118.154 13.3867 118.554 11.32 119.354 9.4C120.154 7.45333 121.221 5.82667 122.554 4.52C123.887 3.21333 125.421 2.18666 127.154 1.44C128.887 0.693332 130.674 0.319998 132.514 0.319998ZM125.234 15.4C125.234 17.7733 125.994 19.7067 127.514 21.2C129.061 22.6667 130.781 23.4 132.674 23.4C134.567 23.4 136.274 22.68 137.794 21.24C139.314 19.8 140.074 17.8667 140.074 15.44C140.074 13.0133 139.301 11.0667 137.754 9.6C136.234 8.13333 134.527 7.4 132.634 7.4C130.741 7.4 129.034 8.14667 127.514 9.64C125.994 11.1067 125.234 13.0267 125.234 15.4ZM182.53 1.8C182.743 2.2 182.863 2.56 182.89 2.88C182.943 3.2 182.97 3.66667 182.97 4.28V26.48C182.97 28.32 182.463 29.4 181.45 29.72C180.943 29.88 180.303 29.96 179.53 29.96C178.756 29.96 178.143 29.8933 177.69 29.76C177.236 29.6267 176.89 29.4667 176.65 29.28C176.41 29.0933 176.223 28.8267 176.09 28.48C175.956 28.0267 175.89 27.3333 175.89 26.4V13C175.223 13.8267 174.25 15.1467 172.97 16.96C171.69 18.7467 170.876 19.8667 170.53 20.32C170.183 20.7733 169.943 21.0933 169.81 21.28C169.676 21.44 169.343 21.68 168.81 22C168.303 22.2933 167.743 22.44 167.13 22.44C166.543 22.44 165.996 22.3067 165.49 22.04C165.01 21.7467 164.663 21.4667 164.45 21.2L164.13 20.76C163.596 20.0933 162.543 18.68 160.97 16.52C159.396 14.3333 158.543 13.16 158.41 13V26.48C158.41 27.0933 158.383 27.56 158.33 27.88C158.303 28.1733 158.183 28.5067 157.97 28.88C157.57 29.6 156.53 29.96 154.85 29.96C153.223 29.96 152.21 29.6 151.81 28.88C151.596 28.5067 151.463 28.16 151.41 27.84C151.383 27.52 151.37 27.04 151.37 26.4V4.2C151.37 3.58666 151.383 3.13333 151.41 2.84C151.463 2.52 151.596 2.16 151.81 1.76C152.21 1.06666 153.25 0.719998 154.93 0.719998C155.65 0.719998 156.263 0.813332 156.77 0.999999C157.303 1.16 157.65 1.33333 157.81 1.52L158.05 1.76L167.13 13.68C171.663 7.68 174.69 3.72 176.21 1.8C176.663 1.08 177.73 0.719998 179.41 0.719998C181.116 0.719998 182.156 1.08 182.53 1.8ZM211.054 1.24C212.361 2.14666 213.014 3.02666 213.014 3.88C213.014 4.38667 212.708 5.09333 212.094 6L203.454 18.92V26.56C203.454 27.1733 203.428 27.64 203.374 27.96C203.348 28.2533 203.228 28.6 203.014 29C202.801 29.4 202.441 29.68 201.934 29.84C201.428 30 200.748 30.08 199.894 30.08C199.041 30.08 198.361 30 197.854 29.84C197.348 29.68 196.988 29.4 196.774 29C196.561 28.5733 196.428 28.2133 196.374 27.92C196.348 27.6 196.334 27.12 196.334 26.48V18.92L187.694 6C187.081 5.09333 186.774 4.38667 186.774 3.88C186.774 3.02666 187.361 2.21333 188.534 1.44C189.708 0.639999 190.548 0.239999 191.054 0.239999C191.561 0.239999 191.961 0.346665 192.254 0.559998C192.708 0.853332 193.188 1.4 193.694 2.2L199.894 12.12L206.094 2.2C206.601 1.4 207.041 0.879999 207.414 0.639999C207.788 0.373333 208.214 0.239999 208.694 0.239999C209.201 0.239999 209.988 0.573332 211.054 1.24ZM227.7 2.76L238.5 25.08C238.954 25.9867 239.18 26.6667 239.18 27.12C239.18 28.08 238.407 28.9467 236.86 29.72C235.954 30.1733 235.234 30.4 234.7 30.4C234.194 30.4 233.767 30.28 233.42 30.04C233.1 29.8 232.86 29.5467 232.7 29.28C232.567 29.0133 232.367 28.6133 232.1 28.08L230.02 23.76H218.94L216.86 28.08C216.594 28.6133 216.38 29 216.22 29.24C216.087 29.48 215.847 29.7333 215.5 30C215.18 30.24 214.754 30.36 214.22 30.36C213.714 30.36 213.007 30.1333 212.1 29.68C210.554 28.9333 209.78 28.08 209.78 27.12C209.78 26.6667 210.007 25.9867 210.46 25.08L221.26 2.72C221.554 2.10666 221.994 1.61333 222.58 1.24C223.194 0.866665 223.834 0.679998 224.5 0.679998C225.94 0.679998 227.007 1.37333 227.7 2.76ZM224.46 12.36L221.82 17.84H227.14L224.46 12.36ZM261.886 1.92C262.153 1.44 262.54 1.12 263.046 0.96C263.553 0.799998 264.18 0.719998 264.926 0.719998C265.7 0.719998 266.313 0.786664 266.766 0.919998C267.246 1.05333 267.593 1.21333 267.806 1.4C268.046 1.58667 268.22 1.86667 268.326 2.24C268.486 2.66667 268.566 3.34667 268.566 4.28V26.48C268.566 27.12 268.54 27.5867 268.486 27.88C268.46 28.1733 268.34 28.52 268.126 28.92C267.753 29.64 266.713 30 265.006 30C263.966 30 263.246 29.92 262.846 29.76C262.446 29.6 262.113 29.3467 261.846 29C255.846 21 251.9 15.7733 250.006 13.32V26.48C250.006 27.12 249.98 27.5867 249.926 27.88C249.9 28.1733 249.78 28.52 249.566 28.92C249.193 29.64 248.153 30 246.446 30C244.793 30 243.78 29.64 243.406 28.92C243.193 28.52 243.06 28.16 243.006 27.84C242.98 27.52 242.966 27.0533 242.966 26.44V4.12C242.966 3.10666 243.086 2.37333 243.326 1.92C243.593 1.44 243.98 1.12 244.486 0.96C244.993 0.799998 245.646 0.719998 246.446 0.719998C247.246 0.719998 247.873 0.799998 248.326 0.96C248.806 1.09333 249.14 1.25333 249.326 1.44C249.433 1.52 249.74 1.86667 250.246 2.48C255.873 10.1333 259.633 15.1867 261.526 17.64V4.12C261.526 3.10666 261.646 2.37333 261.886 1.92ZM285.513 25.88C284.819 25.0267 284.473 24.2667 284.473 23.6C284.473 22.9067 285.046 22 286.193 20.88C286.859 20.24 287.566 19.92 288.313 19.92C289.059 19.92 290.099 20.5867 291.433 21.92C291.806 22.3733 292.339 22.8133 293.033 23.24C293.726 23.64 294.366 23.84 294.953 23.84C297.433 23.84 298.673 22.8267 298.673 20.8C298.673 20.1867 298.326 19.68 297.633 19.28C296.966 18.8533 296.126 18.5467 295.113 18.36C294.099 18.1733 293.006 17.88 291.833 17.48C290.659 17.0533 289.566 16.56 288.553 16C287.539 15.44 286.686 14.56 285.993 13.36C285.326 12.1333 284.993 10.6667 284.993 8.96C284.993 6.61333 285.859 4.57333 287.593 2.84C289.353 1.08 291.739 0.199997 294.753 0.199997C296.353 0.199997 297.806 0.413331 299.113 0.839999C300.446 1.24 301.366 1.65333 301.873 2.08L302.873 2.84C303.699 3.61333 304.113 4.26666 304.113 4.8C304.113 5.33333 303.793 6.06667 303.153 7C302.246 8.33333 301.313 9 300.353 9C299.793 9 299.099 8.73333 298.273 8.2C298.193 8.14667 298.033 8.01333 297.793 7.8C297.579 7.58667 297.379 7.41333 297.193 7.28C296.633 6.93333 295.913 6.76 295.033 6.76C294.179 6.76 293.459 6.97333 292.873 7.4C292.313 7.8 292.033 8.37333 292.033 9.12C292.033 9.84 292.366 10.4267 293.033 10.88C293.726 11.3333 294.579 11.64 295.593 11.8C296.606 11.96 297.713 12.2133 298.913 12.56C300.113 12.88 301.219 13.28 302.233 13.76C303.246 14.24 304.086 15.08 304.753 16.28C305.446 17.4533 305.793 18.9067 305.793 20.64C305.793 22.3733 305.446 23.9067 304.753 25.24C304.059 26.5467 303.153 27.56 302.033 28.28C299.873 29.6933 297.566 30.4 295.113 30.4C293.859 30.4 292.673 30.2533 291.553 29.96C290.433 29.64 289.526 29.2533 288.833 28.8C287.419 27.9467 286.433 27.12 285.873 26.32L285.513 25.88ZM309.921 0.639999H332.161C333.014 0.639999 333.641 0.746666 334.041 0.96C334.441 1.14667 334.707 1.45333 334.841 1.88C334.974 2.30667 335.041 2.86667 335.041 3.56C335.041 4.25333 334.974 4.81333 334.841 5.24C334.707 5.64 334.481 5.92 334.161 6.08C333.681 6.32 333.001 6.44 332.121 6.44H324.481V26.56C324.481 27.1733 324.454 27.6267 324.401 27.92C324.374 28.2133 324.254 28.56 324.041 28.96C323.854 29.3333 323.507 29.6 323.001 29.76C322.494 29.92 321.827 30 321.001 30C320.174 30 319.507 29.92 319.001 29.76C318.521 29.6 318.174 29.3333 317.961 28.96C317.774 28.56 317.654 28.2133 317.601 27.92C317.574 27.6 317.561 27.1333 317.561 26.52V6.44H309.881C309.027 6.44 308.401 6.34667 308.001 6.16C307.601 5.94667 307.334 5.62667 307.201 5.2C307.067 4.77333 307.001 4.21333 307.001 3.52C307.001 2.82667 307.067 2.28 307.201 1.88C307.334 1.45333 307.561 1.16 307.881 0.999999C308.361 0.759999 309.041 0.639999 309.921 0.639999ZM358.019 1.76C358.285 1.33333 358.672 1.04 359.179 0.879998C359.685 0.719999 360.312 0.639999 361.059 0.639999C361.832 0.639999 362.445 0.706666 362.899 0.839999C363.352 0.973332 363.699 1.13333 363.939 1.32C364.179 1.50667 364.352 1.78667 364.459 2.16C364.619 2.61333 364.699 3.30667 364.699 4.24V16.32C364.699 19.84 363.605 23.04 361.419 25.92C360.352 27.28 358.979 28.3867 357.299 29.24C355.619 30.0667 353.752 30.48 351.699 30.48C349.672 30.48 347.819 30.0533 346.139 29.2C344.485 28.3467 343.139 27.2267 342.099 25.84C339.939 23.0133 338.859 19.8133 338.859 16.24V4.2C338.859 3.56 338.872 3.09333 338.899 2.8C338.952 2.48 339.085 2.12 339.299 1.72C339.512 1.32 339.872 1.04 340.379 0.879998C340.885 0.719999 341.565 0.639999 342.419 0.639999C343.272 0.639999 343.952 0.719999 344.459 0.879998C344.965 1.04 345.312 1.32 345.499 1.72C345.819 2.33333 345.979 3.17333 345.979 4.24V16.24C345.979 17.8667 346.379 19.4133 347.179 20.88C347.579 21.6267 348.179 22.2267 348.979 22.68C349.779 23.1333 350.725 23.36 351.819 23.36C353.765 23.36 355.219 22.64 356.179 21.2C357.139 19.76 357.619 18.0933 357.619 16.2V3.96C357.619 2.92 357.752 2.18666 358.019 1.76ZM373.042 0.639999L380.442 0.679998C384.309 0.679998 387.709 2.08 390.642 4.88C393.575 7.65333 395.042 11.08 395.042 15.16C395.042 19.2133 393.602 22.6933 390.722 25.6C387.869 28.5067 384.402 29.96 380.322 29.96H373.002C371.375 29.96 370.362 29.6267 369.962 28.96C369.642 28.4 369.482 27.5467 369.482 26.4V4.16C369.482 3.52 369.495 3.05333 369.522 2.76C369.575 2.46667 369.709 2.12 369.922 1.72C370.295 0.999999 371.335 0.639999 373.042 0.639999ZM380.442 22.88C382.362 22.88 384.095 22.1733 385.642 20.76C387.189 19.32 387.962 17.52 387.962 15.36C387.962 13.2 387.202 11.4 385.682 9.96C384.189 8.49333 382.429 7.76 380.402 7.76H376.562V22.88H380.442ZM399.246 4.2C399.246 3.58666 399.259 3.13333 399.286 2.84C399.339 2.52 399.473 2.16 399.686 1.76C400.059 1.04 401.099 0.679998 402.806 0.679998C404.673 0.679998 405.779 1.17333 406.126 2.16C406.259 2.61333 406.326 3.30667 406.326 4.24V26.48C406.326 27.12 406.299 27.5867 406.246 27.88C406.219 28.1733 406.099 28.52 405.886 28.92C405.513 29.64 404.473 30 402.766 30C400.899 30 399.806 29.4933 399.486 28.48C399.326 28.0533 399.246 27.3733 399.246 26.44V4.2ZM424.88 0.319998C428.826 0.319998 432.253 1.74666 435.16 4.6C438.066 7.45333 439.52 11 439.52 15.24C439.52 19.4533 438.133 23.0533 435.36 26.04C432.586 29 429.173 30.48 425.12 30.48C421.066 30.48 417.613 29.0133 414.76 26.08C411.933 23.1467 410.52 19.6533 410.52 15.6C410.52 13.3867 410.92 11.32 411.72 9.4C412.52 7.45333 413.586 5.82667 414.92 4.52C416.253 3.21333 417.786 2.18666 419.52 1.44C421.253 0.693332 423.04 0.319998 424.88 0.319998ZM417.6 15.4C417.6 17.7733 418.36 19.7067 419.88 21.2C421.426 22.6667 423.146 23.4 425.04 23.4C426.933 23.4 428.64 22.68 430.16 21.24C431.68 19.8 432.44 17.8667 432.44 15.44C432.44 13.0133 431.666 11.0667 430.12 9.6C428.6 8.13333 426.893 7.4 425 7.4C423.106 7.4 421.4 8.14667 419.88 9.64C418.36 11.1067 417.6 13.0267 417.6 15.4Z" fill="white"/>
</svg>
